G75*
G70*
%OFA0B0*%
%FSLAX24Y24*%
%IPPOS*%
%LPD*%
%AMOC8*
5,1,8,0,0,1.08239X$1,22.5*
%
%ADD10C,0.0040*%
%ADD11C,0.0030*%
%ADD12C,0.0080*%
%ADD13C,0.0050*%
%ADD14C,0.0100*%
%ADD15C,0.0160*%
D10*
X002922Y004808D02*
X003229Y004808D01*
X003076Y004961D02*
X003076Y004654D01*
X008122Y003547D02*
X008122Y003317D01*
X008582Y003317D01*
X008505Y003163D02*
X008582Y003087D01*
X008582Y002933D01*
X008505Y002857D01*
X008199Y002857D01*
X008122Y002933D01*
X008122Y003087D01*
X008199Y003163D01*
X008505Y003163D01*
X008429Y003317D02*
X008429Y003547D01*
X008352Y003624D01*
X008199Y003624D01*
X008122Y003547D01*
X008429Y003470D02*
X008582Y003624D01*
X008505Y002703D02*
X008429Y002703D01*
X008352Y002626D01*
X008352Y002473D01*
X008275Y002396D01*
X008199Y002396D01*
X008122Y002473D01*
X008122Y002626D01*
X008199Y002703D01*
X008122Y002243D02*
X008582Y002243D01*
X008122Y001936D01*
X008582Y001936D01*
X008582Y001782D02*
X008582Y001475D01*
X008122Y001475D01*
X008122Y001782D01*
X008199Y001322D02*
X008122Y001245D01*
X008122Y001092D01*
X008199Y001015D01*
X008275Y001015D01*
X008352Y001092D01*
X008352Y001245D01*
X008429Y001322D01*
X008505Y001322D01*
X008582Y001245D01*
X008582Y001092D01*
X008505Y001015D01*
X008352Y001475D02*
X008352Y001629D01*
X008505Y002396D02*
X008582Y002473D01*
X008582Y002626D01*
X008505Y002703D01*
X009722Y003008D02*
X009952Y002777D01*
X009952Y003084D01*
X010182Y003008D02*
X009722Y003008D01*
X009799Y002184D02*
X009875Y002184D01*
X009952Y002108D01*
X010029Y002184D01*
X010105Y002184D01*
X010182Y002108D01*
X010182Y001954D01*
X010105Y001877D01*
X009952Y002031D02*
X009952Y002108D01*
X009799Y002184D02*
X009722Y002108D01*
X009722Y001954D01*
X009799Y001877D01*
X009799Y004777D02*
X009722Y004854D01*
X009722Y005008D01*
X009799Y005084D01*
X009875Y005084D01*
X010182Y004777D01*
X010182Y005084D01*
X010182Y005677D02*
X010182Y005984D01*
X010182Y005831D02*
X009722Y005831D01*
X009875Y005677D01*
D11*
X009997Y014272D02*
X010287Y014272D01*
X010287Y014466D01*
X010287Y014567D02*
X009997Y014567D01*
X010094Y014664D01*
X009997Y014760D01*
X010287Y014760D01*
X010287Y015007D02*
X009997Y015007D01*
X010142Y014862D01*
X010142Y015055D01*
X010045Y015156D02*
X009997Y015205D01*
X009997Y015301D01*
X010045Y015350D01*
X010239Y015156D01*
X010287Y015205D01*
X010287Y015301D01*
X010239Y015350D01*
X010045Y015350D01*
X010142Y015451D02*
X010142Y015596D01*
X010190Y015644D01*
X010239Y015644D01*
X010287Y015596D01*
X010287Y015499D01*
X010239Y015451D01*
X010142Y015451D01*
X010045Y015548D01*
X009997Y015644D01*
X010045Y015156D02*
X010239Y015156D01*
X009997Y014466D02*
X009997Y014272D01*
X010142Y014272D02*
X010142Y014369D01*
X006604Y014203D02*
X006314Y014203D01*
X006314Y014348D01*
X006362Y014396D01*
X006459Y014396D01*
X006507Y014348D01*
X006507Y014203D01*
X006459Y014101D02*
X006507Y014053D01*
X006507Y013956D01*
X006459Y013908D01*
X006362Y013908D01*
X006314Y013956D01*
X006314Y014053D01*
X006362Y014101D01*
X006459Y014101D01*
X006459Y014497D02*
X006362Y014497D01*
X006314Y014546D01*
X006314Y014642D01*
X006362Y014691D01*
X006410Y014691D01*
X006410Y014497D01*
X006459Y014497D02*
X006507Y014546D01*
X006507Y014642D01*
X006507Y014792D02*
X006314Y014792D01*
X006314Y014937D01*
X006362Y014985D01*
X006507Y014985D01*
X006507Y015087D02*
X006507Y015183D01*
X006507Y015135D02*
X006217Y015135D01*
X006217Y015087D01*
X006362Y015283D02*
X006459Y015283D01*
X006507Y015331D01*
X006507Y015428D01*
X006459Y015477D01*
X006362Y015477D01*
X006314Y015428D01*
X006314Y015331D01*
X006362Y015283D01*
X006362Y015578D02*
X006459Y015578D01*
X006507Y015626D01*
X006507Y015771D01*
X006556Y015771D02*
X006314Y015771D01*
X006314Y015626D01*
X006362Y015578D01*
X006604Y015674D02*
X006604Y015723D01*
X006556Y015771D01*
X005184Y019482D02*
X005184Y019773D01*
X005377Y019773D01*
X005281Y019627D02*
X005184Y019627D01*
X005083Y019676D02*
X005083Y019482D01*
X004938Y019482D01*
X004889Y019531D01*
X004889Y019676D01*
X004788Y019482D02*
X004595Y019482D01*
X004691Y019482D02*
X004691Y019773D01*
X004595Y019676D01*
X004496Y019531D02*
X004496Y019482D01*
X004447Y019482D01*
X004447Y019531D01*
X004496Y019531D01*
X002747Y014692D02*
X002457Y014692D01*
X002457Y014499D01*
X002457Y014398D02*
X002747Y014398D01*
X002651Y014301D01*
X002747Y014204D01*
X002457Y014204D01*
X002602Y014103D02*
X002602Y013910D01*
X002506Y013808D02*
X002699Y013615D01*
X002506Y013615D01*
X002457Y013663D01*
X002457Y013760D01*
X002506Y013808D01*
X002699Y013808D01*
X002747Y013760D01*
X002747Y013663D01*
X002699Y013615D01*
X002602Y013514D02*
X002602Y013369D01*
X002554Y013320D01*
X002506Y013320D01*
X002457Y013369D01*
X002457Y013465D01*
X002506Y013514D01*
X002602Y013514D01*
X002699Y013417D01*
X002747Y013320D01*
X002747Y013958D02*
X002602Y014103D01*
X002457Y013958D02*
X002747Y013958D01*
X002747Y014499D02*
X002747Y014692D01*
X002602Y014692D02*
X002602Y014596D01*
D12*
X000140Y005538D02*
X000140Y003176D01*
X003211Y003176D01*
X003211Y003570D01*
X002502Y003570D01*
X002502Y005145D02*
X003211Y005145D01*
X003211Y005538D01*
X000140Y005538D01*
X000140Y005976D02*
X000140Y008338D01*
X003211Y008338D01*
X003211Y007945D01*
X002502Y007945D01*
X002502Y009070D02*
X003211Y009070D01*
X003211Y008676D01*
X000140Y008676D01*
X000140Y011038D01*
X003211Y011038D01*
X003211Y010645D01*
X002502Y010645D01*
X001942Y011967D02*
X002192Y012217D01*
X002192Y012717D01*
X001942Y012967D01*
X002192Y013217D01*
X002192Y013717D01*
X001942Y013967D01*
X002192Y014217D01*
X002192Y014717D01*
X001942Y014967D01*
X002192Y015217D01*
X002192Y015717D01*
X001942Y015967D01*
X002192Y016217D01*
X002192Y016717D01*
X001942Y016967D01*
X001442Y016967D01*
X001192Y016717D01*
X001192Y016217D01*
X001442Y015967D01*
X001192Y015717D01*
X001192Y015217D01*
X001442Y014967D01*
X001192Y014717D01*
X001192Y014217D01*
X001442Y013967D01*
X001192Y013717D01*
X001192Y013217D01*
X001442Y012967D01*
X001192Y012717D01*
X001192Y012217D01*
X001442Y011967D01*
X001942Y011967D01*
X002502Y006370D02*
X003211Y006370D01*
X003211Y005976D01*
X000140Y005976D01*
X003197Y002896D02*
X003197Y000455D01*
X007764Y000455D01*
X007764Y000140D01*
X003197Y000140D01*
X003197Y000455D01*
X003197Y002896D02*
X007764Y002896D01*
X007764Y000455D01*
X008194Y004276D02*
X008194Y004670D01*
X008902Y004670D01*
X008902Y006245D02*
X008194Y006245D01*
X008194Y006638D01*
X011264Y006638D01*
X011264Y004276D01*
X008194Y004276D01*
X008064Y007052D02*
X010505Y007052D01*
X010505Y011619D01*
X010820Y011619D01*
X010820Y007052D01*
X010505Y007052D01*
X010505Y011619D02*
X008064Y011619D01*
X008064Y007052D01*
X007502Y011657D02*
X007002Y011657D01*
X006752Y011907D01*
X006752Y012407D01*
X007002Y012657D01*
X007502Y012657D01*
X007752Y012407D01*
X007752Y011907D01*
X007502Y011657D01*
X007502Y012657D02*
X007752Y012907D01*
X007752Y013407D01*
X007502Y013657D01*
X007002Y013657D01*
X006752Y013907D01*
X006752Y014407D01*
X007002Y014657D01*
X007502Y014657D01*
X007752Y014407D01*
X007752Y013907D01*
X007502Y013657D01*
X007502Y014657D02*
X007752Y014907D01*
X007752Y015407D01*
X007502Y015657D01*
X007002Y015657D01*
X006752Y015907D01*
X006752Y016407D01*
X007002Y016657D01*
X007502Y016657D01*
X007752Y016407D01*
X007752Y015907D01*
X007502Y015657D01*
X007502Y016657D02*
X007752Y016907D01*
X007752Y017407D01*
X007502Y017657D01*
X007002Y017657D01*
X006752Y017407D01*
X006752Y016907D01*
X007002Y016657D01*
X007002Y015657D02*
X006752Y015407D01*
X006752Y014907D01*
X007002Y014657D01*
X007002Y013657D02*
X006752Y013407D01*
X006752Y012907D01*
X007002Y012657D01*
X007552Y018157D02*
X007302Y018407D01*
X007302Y018907D01*
X007552Y019157D01*
X007302Y019407D01*
X007302Y019907D01*
X007552Y020157D01*
X007302Y020407D01*
X007302Y020907D01*
X007552Y021157D01*
X007302Y021407D01*
X007302Y021907D01*
X007552Y022157D01*
X007302Y022407D01*
X007302Y022907D01*
X007552Y023157D01*
X007302Y023407D01*
X007302Y023907D01*
X007552Y024157D01*
X007302Y024407D01*
X007302Y024907D01*
X007302Y025407D01*
X007052Y025657D01*
X007302Y025907D01*
X007302Y026407D01*
X007052Y026657D01*
X006552Y026657D01*
X006302Y026407D01*
X006302Y025907D01*
X006552Y025657D01*
X006302Y025407D01*
X006302Y024907D01*
X006552Y024657D01*
X007052Y024657D01*
X007302Y024907D01*
X007552Y025157D01*
X007302Y025407D01*
X007302Y025907D01*
X007552Y026157D01*
X007302Y026407D01*
X007302Y026907D01*
X007552Y027157D01*
X007302Y027407D01*
X007302Y027907D01*
X007552Y028157D01*
X007302Y028407D01*
X007302Y028907D01*
X007552Y029157D01*
X007302Y029407D01*
X007302Y029907D01*
X007552Y030157D01*
X007802Y030407D01*
X007802Y030907D01*
X007552Y031157D01*
X007052Y031157D01*
X006802Y030907D01*
X006552Y031157D01*
X006052Y031157D01*
X005802Y030907D01*
X005552Y031157D01*
X005052Y031157D01*
X004802Y030907D01*
X004552Y031157D01*
X004052Y031157D01*
X003802Y030907D01*
X003552Y031157D01*
X003052Y031157D01*
X002802Y030907D01*
X002552Y031157D01*
X002052Y031157D01*
X001802Y030907D01*
X001802Y030407D01*
X002052Y030157D01*
X002552Y030157D01*
X002802Y030407D01*
X003052Y030157D01*
X003552Y030157D01*
X003802Y030407D01*
X004052Y030157D01*
X004552Y030157D01*
X004802Y030407D01*
X005052Y030157D01*
X005552Y030157D01*
X005802Y030407D01*
X006052Y030157D01*
X006552Y030157D01*
X006802Y030407D01*
X007052Y030157D01*
X007552Y030157D01*
X008052Y030157D01*
X008302Y029907D01*
X008302Y029407D01*
X008052Y029157D01*
X008302Y028907D01*
X008302Y028407D01*
X008052Y028157D01*
X008302Y027907D01*
X008302Y027407D01*
X008052Y027157D01*
X008302Y026907D01*
X008302Y026407D01*
X008052Y026157D01*
X008302Y025907D01*
X008302Y025407D01*
X008052Y025157D01*
X008302Y024907D01*
X008302Y024407D01*
X008052Y024157D01*
X008302Y023907D01*
X008302Y023407D01*
X008052Y023157D01*
X008302Y022907D01*
X008302Y022407D01*
X008052Y022157D01*
X008302Y021907D01*
X008302Y021407D01*
X008052Y021157D01*
X008302Y020907D01*
X008302Y020407D01*
X008052Y020157D01*
X008302Y019907D01*
X008302Y019407D01*
X008052Y019157D01*
X008302Y018907D01*
X008302Y018407D01*
X008052Y018157D01*
X007552Y018157D01*
X009102Y017907D02*
X009102Y017407D01*
X009352Y017157D01*
X009852Y017157D01*
X010102Y017407D01*
X010102Y017907D01*
X009852Y018157D01*
X010102Y018407D01*
X010102Y018907D01*
X009852Y019157D01*
X010102Y019407D01*
X010102Y019907D01*
X009852Y020157D01*
X010102Y020407D01*
X010102Y020907D01*
X009852Y021157D01*
X010102Y021407D01*
X010102Y021907D01*
X009852Y022157D01*
X010102Y022407D01*
X010102Y022907D01*
X009852Y023157D01*
X010102Y023407D01*
X010102Y023907D01*
X009852Y024157D01*
X010102Y024407D01*
X010102Y024907D01*
X009852Y025157D01*
X010102Y025407D01*
X010102Y025907D01*
X009852Y026157D01*
X010102Y026407D01*
X010102Y026907D01*
X009852Y027157D01*
X010102Y027407D01*
X010102Y027907D01*
X009852Y028157D01*
X010102Y028407D01*
X010102Y028907D01*
X009852Y029157D01*
X009352Y029157D01*
X009102Y028907D01*
X009102Y028407D01*
X009352Y028157D01*
X009102Y027907D01*
X009102Y027407D01*
X009352Y027157D01*
X009102Y026907D01*
X009102Y026407D01*
X009352Y026157D01*
X009102Y025907D01*
X009102Y025407D01*
X009352Y025157D01*
X009102Y024907D01*
X009102Y024407D01*
X009352Y024157D01*
X009102Y023907D01*
X009102Y023407D01*
X009352Y023157D01*
X009102Y022907D01*
X009102Y022407D01*
X009352Y022157D01*
X009102Y021907D01*
X009102Y021407D01*
X009352Y021157D01*
X009102Y020907D01*
X009102Y020407D01*
X009352Y020157D01*
X009102Y019907D01*
X009102Y019407D01*
X009352Y019157D01*
X009102Y018907D01*
X009102Y018407D01*
X009352Y018157D01*
X009102Y017907D01*
X006042Y020085D02*
X003562Y020085D01*
X003562Y021030D01*
X006042Y021030D01*
X006042Y020085D01*
X006042Y021285D02*
X003562Y021285D01*
X003562Y022230D01*
X006042Y022230D01*
X006042Y021285D01*
X006042Y022485D02*
X003562Y022485D01*
X003562Y023430D01*
X006042Y023430D01*
X006042Y022485D01*
X005275Y025417D02*
X005275Y027897D01*
X004330Y027897D01*
X004330Y025417D01*
X005275Y025417D01*
X003775Y025417D02*
X003775Y027897D01*
X002830Y027897D01*
X002830Y025417D01*
X003775Y025417D01*
X002302Y025407D02*
X002302Y025907D01*
X002052Y026157D01*
X002302Y026407D01*
X002302Y026907D01*
X002052Y027157D01*
X002302Y027407D01*
X002302Y027907D01*
X002052Y028157D01*
X002302Y028407D01*
X002302Y028907D01*
X002052Y029157D01*
X002302Y029407D01*
X002302Y029907D01*
X002052Y030157D01*
X001552Y030157D01*
X001302Y029907D01*
X001302Y029407D01*
X001552Y029157D01*
X001302Y028907D01*
X001302Y028407D01*
X001552Y028157D01*
X001302Y027907D01*
X001302Y027407D01*
X001552Y027157D01*
X001302Y026907D01*
X001302Y026407D01*
X001552Y026157D01*
X001302Y025907D01*
X001302Y025407D01*
X001552Y025157D01*
X001302Y024907D01*
X001302Y024407D01*
X001552Y024157D01*
X001302Y023907D01*
X001302Y023407D01*
X001552Y023157D01*
X001302Y022907D01*
X001302Y022407D01*
X001552Y022157D01*
X001302Y021907D01*
X001302Y021407D01*
X001552Y021157D01*
X001302Y020907D01*
X001302Y020407D01*
X001552Y020157D01*
X001302Y019907D01*
X001302Y019407D01*
X001552Y019157D01*
X001302Y018907D01*
X001302Y018407D01*
X001552Y018157D01*
X002052Y018157D01*
X002302Y018407D01*
X002302Y018907D01*
X002052Y019157D01*
X002302Y019407D01*
X002302Y019907D01*
X002052Y020157D01*
X002302Y020407D01*
X002302Y020907D01*
X002052Y021157D01*
X002302Y021407D01*
X002302Y021907D01*
X002052Y022157D01*
X002302Y022407D01*
X002302Y022907D01*
X002052Y023157D01*
X002302Y023407D01*
X002302Y023907D01*
X002052Y024157D01*
X002302Y024407D01*
X002302Y024907D01*
X002052Y025157D01*
X002302Y025407D01*
X004802Y019607D02*
X004802Y019107D01*
X004802Y019007D02*
X004802Y018507D01*
D13*
X005187Y020412D02*
X005367Y020412D01*
X005277Y020412D02*
X005277Y020683D01*
X005187Y020592D01*
X005482Y020502D02*
X005617Y020592D01*
X005482Y020502D02*
X005617Y020412D01*
X005482Y020412D02*
X005482Y020683D01*
X004652Y021632D02*
X004697Y021677D01*
X004697Y021858D01*
X004517Y021677D01*
X004562Y021632D01*
X004652Y021632D01*
X004517Y021677D02*
X004517Y021858D01*
X004562Y021903D01*
X004652Y021903D01*
X004697Y021858D01*
X004402Y021858D02*
X004402Y021677D01*
X004357Y021632D01*
X004267Y021632D01*
X004222Y021677D01*
X004402Y021858D01*
X004357Y021903D01*
X004267Y021903D01*
X004222Y021858D01*
X004222Y021677D01*
X004107Y021632D02*
X003927Y021632D01*
X004017Y021632D02*
X004017Y021903D01*
X003927Y021812D01*
X004892Y022812D02*
X005073Y022812D01*
X004982Y022812D02*
X004982Y023083D01*
X004892Y022992D01*
X005187Y023038D02*
X005232Y023083D01*
X005322Y023083D01*
X005367Y023038D01*
X005187Y022857D01*
X005232Y022812D01*
X005322Y022812D01*
X005367Y022857D01*
X005367Y023038D01*
X005482Y023083D02*
X005482Y022812D01*
X005482Y022902D02*
X005617Y022992D01*
X005482Y022902D02*
X005617Y022812D01*
X005187Y022857D02*
X005187Y023038D01*
X004927Y025782D02*
X004747Y025962D01*
X004702Y025962D01*
X004657Y025917D01*
X004657Y025827D01*
X004702Y025782D01*
X004882Y026077D02*
X004882Y026122D01*
X004927Y026122D01*
X004927Y026077D01*
X004882Y026077D01*
X004927Y025962D02*
X004927Y025782D01*
X004927Y026224D02*
X004882Y026224D01*
X004702Y026404D01*
X004657Y026404D01*
X004657Y026224D01*
X004792Y026519D02*
X004702Y026609D01*
X004657Y026699D01*
X004657Y026814D02*
X004927Y026814D01*
X004837Y026814D02*
X004927Y026949D01*
X004837Y026814D02*
X004747Y026949D01*
X004837Y026699D02*
X004792Y026654D01*
X004792Y026519D01*
X004882Y026519D01*
X004927Y026564D01*
X004927Y026654D01*
X004882Y026699D01*
X004837Y026699D01*
X003427Y026654D02*
X003382Y026699D01*
X003337Y026699D01*
X003292Y026654D01*
X003292Y026519D01*
X003382Y026519D01*
X003427Y026564D01*
X003427Y026654D01*
X003427Y026814D02*
X003157Y026814D01*
X003157Y026699D02*
X003202Y026609D01*
X003292Y026519D01*
X003202Y026404D02*
X003382Y026224D01*
X003427Y026224D01*
X003427Y026122D02*
X003427Y026077D01*
X003382Y026077D01*
X003382Y026122D01*
X003427Y026122D01*
X003427Y025962D02*
X003427Y025782D01*
X003247Y025962D01*
X003202Y025962D01*
X003157Y025917D01*
X003157Y025827D01*
X003202Y025782D01*
X003157Y026224D02*
X003157Y026404D01*
X003202Y026404D01*
X003337Y026814D02*
X003247Y026949D01*
X003337Y026814D02*
X003427Y026949D01*
X005849Y006407D02*
X005955Y006407D01*
X005452Y006010D02*
X005479Y005956D01*
X005509Y005905D01*
X005542Y005855D01*
X005577Y005807D01*
X007227Y005807D01*
X006955Y006407D02*
X006849Y006407D01*
X007356Y006019D02*
X007329Y005963D01*
X007298Y005909D01*
X007264Y005857D01*
X007227Y005807D01*
X007352Y006904D02*
X007323Y006961D01*
X007290Y007017D01*
X007255Y007070D01*
X007215Y007121D01*
X007173Y007169D01*
X007128Y007215D01*
X007081Y007258D01*
X007031Y007298D01*
X006978Y007335D01*
X006923Y007368D01*
X006867Y007399D01*
X006808Y007425D01*
X006748Y007448D01*
X006687Y007468D01*
X006625Y007483D01*
X006562Y007495D01*
X006498Y007503D01*
X006434Y007507D01*
X006370Y007507D01*
X006306Y007503D01*
X006242Y007495D01*
X006179Y007483D01*
X006117Y007468D01*
X006056Y007448D01*
X005996Y007425D01*
X005937Y007399D01*
X005881Y007368D01*
X005826Y007335D01*
X005773Y007298D01*
X005723Y007258D01*
X005676Y007215D01*
X005631Y007169D01*
X005589Y007121D01*
X005549Y007070D01*
X005514Y007017D01*
X005481Y006961D01*
X005452Y006904D01*
D14*
X004009Y009557D02*
X004011Y009645D01*
X004018Y009733D01*
X004028Y009820D01*
X004043Y009907D01*
X004063Y009993D01*
X004086Y010077D01*
X004114Y010161D01*
X004145Y010243D01*
X004181Y010324D01*
X004221Y010402D01*
X004264Y010479D01*
X004311Y010553D01*
X004362Y010625D01*
X004416Y010694D01*
X004473Y010761D01*
X004534Y010825D01*
X004598Y010886D01*
X004665Y010943D01*
X004734Y010997D01*
X004806Y011048D01*
X004880Y011095D01*
X004957Y011138D01*
X005035Y011178D01*
X005116Y011214D01*
X005198Y011245D01*
X005282Y011273D01*
X005366Y011296D01*
X005452Y011316D01*
X005539Y011331D01*
X005626Y011341D01*
X005714Y011348D01*
X005802Y011350D01*
X005890Y011348D01*
X005978Y011341D01*
X006065Y011331D01*
X006152Y011316D01*
X006238Y011296D01*
X006322Y011273D01*
X006406Y011245D01*
X006488Y011214D01*
X006569Y011178D01*
X006647Y011138D01*
X006724Y011095D01*
X006798Y011048D01*
X006870Y010997D01*
X006939Y010943D01*
X007006Y010886D01*
X007070Y010825D01*
X007131Y010761D01*
X007188Y010694D01*
X007242Y010625D01*
X007293Y010553D01*
X007340Y010479D01*
X007383Y010402D01*
X007423Y010324D01*
X007459Y010243D01*
X007490Y010161D01*
X007518Y010077D01*
X007541Y009993D01*
X007561Y009907D01*
X007576Y009820D01*
X007586Y009733D01*
X007593Y009645D01*
X007595Y009557D01*
X007593Y009469D01*
X007586Y009381D01*
X007576Y009294D01*
X007561Y009207D01*
X007541Y009121D01*
X007518Y009037D01*
X007490Y008953D01*
X007459Y008871D01*
X007423Y008790D01*
X007383Y008712D01*
X007340Y008635D01*
X007293Y008561D01*
X007242Y008489D01*
X007188Y008420D01*
X007131Y008353D01*
X007070Y008289D01*
X007006Y008228D01*
X006939Y008171D01*
X006870Y008117D01*
X006798Y008066D01*
X006724Y008019D01*
X006647Y007976D01*
X006569Y007936D01*
X006488Y007900D01*
X006406Y007869D01*
X006322Y007841D01*
X006238Y007818D01*
X006152Y007798D01*
X006065Y007783D01*
X005978Y007773D01*
X005890Y007766D01*
X005802Y007764D01*
X005714Y007766D01*
X005626Y007773D01*
X005539Y007783D01*
X005452Y007798D01*
X005366Y007818D01*
X005282Y007841D01*
X005198Y007869D01*
X005116Y007900D01*
X005035Y007936D01*
X004957Y007976D01*
X004880Y008019D01*
X004806Y008066D01*
X004734Y008117D01*
X004665Y008171D01*
X004598Y008228D01*
X004534Y008289D01*
X004473Y008353D01*
X004416Y008420D01*
X004362Y008489D01*
X004311Y008561D01*
X004264Y008635D01*
X004221Y008712D01*
X004181Y008790D01*
X004145Y008871D01*
X004114Y008953D01*
X004086Y009037D01*
X004063Y009121D01*
X004043Y009207D01*
X004028Y009294D01*
X004018Y009381D01*
X004011Y009469D01*
X004009Y009557D01*
X006924Y008146D02*
X007091Y007979D01*
X007105Y007965D02*
X007369Y008229D01*
X007355Y008243D02*
X007188Y008410D01*
X008452Y013257D02*
X008452Y013657D01*
X008452Y013257D02*
X009002Y013257D01*
X009852Y013957D02*
X009852Y015957D01*
X009002Y016657D02*
X008452Y016657D01*
X008452Y016257D01*
D15*
X008161Y013957D02*
X008163Y013969D01*
X008168Y013980D01*
X008176Y013989D01*
X008187Y013995D01*
X008199Y013998D01*
X008211Y013997D01*
X008223Y013993D01*
X008232Y013985D01*
X008239Y013975D01*
X008243Y013963D01*
X008243Y013951D01*
X008239Y013939D01*
X008232Y013929D01*
X008222Y013921D01*
X008211Y013917D01*
X008199Y013916D01*
X008187Y013919D01*
X008176Y013925D01*
X008168Y013934D01*
X008163Y013945D01*
X008161Y013957D01*
M02*
