G75*
G70*
%OFA0B0*%
%FSLAX24Y24*%
%IPPOS*%
%LPD*%
%AMOC8*
5,1,8,0,0,1.08239X$1,22.5*
%
%ADD10C,0.0740*%
%ADD11C,0.0570*%
%ADD12C,0.0760*%
%ADD13R,0.0800X0.0800*%
%ADD14C,0.0800*%
%ADD15C,0.0520*%
%ADD16C,0.0650*%
%ADD17C,0.0100*%
%ADD18C,0.0400*%
D10*
X004440Y012467D03*
X004440Y013467D03*
X004440Y014467D03*
X004440Y015467D03*
X004440Y016467D03*
X004550Y018657D03*
X004550Y019657D03*
X004550Y020657D03*
X004550Y021657D03*
X004550Y022657D03*
X004550Y023657D03*
X004550Y024657D03*
X004550Y025657D03*
X004550Y026657D03*
X004550Y027657D03*
X004550Y028657D03*
X004550Y029657D03*
X005050Y030657D03*
X006050Y030657D03*
X006050Y028657D03*
X007050Y030657D03*
X007550Y028657D03*
X008050Y030657D03*
X009050Y030657D03*
X010050Y030657D03*
X010550Y029657D03*
X010550Y028657D03*
X010550Y027657D03*
X010550Y026657D03*
X010550Y025657D03*
X010550Y024657D03*
X010550Y023657D03*
X010550Y022657D03*
X010550Y021657D03*
X010550Y020657D03*
X010550Y019657D03*
X010550Y018657D03*
X010050Y017157D03*
X009950Y016157D03*
X010050Y015157D03*
X009950Y014157D03*
X010050Y013157D03*
X009950Y012157D03*
X012350Y017657D03*
X012350Y018657D03*
X012350Y019657D03*
X012350Y020657D03*
X012350Y021657D03*
X012350Y022657D03*
X012350Y023657D03*
X012350Y024657D03*
X012350Y025657D03*
X012350Y026657D03*
X012350Y027657D03*
X012350Y028657D03*
X009550Y026157D03*
X009550Y025157D03*
X009550Y022957D03*
X009550Y021757D03*
X009550Y020557D03*
X007550Y024657D03*
X006050Y024657D03*
X005550Y022957D03*
X005550Y021757D03*
X005550Y020557D03*
D11*
X005250Y010251D03*
X005250Y009464D03*
X005250Y007551D03*
X005250Y006764D03*
X005250Y004751D03*
X005250Y003964D03*
X011650Y005064D03*
X011650Y005851D03*
X011650Y002851D03*
X011650Y002064D03*
D12*
X008550Y008557D03*
X008550Y010557D03*
X007550Y009557D03*
X009550Y009557D03*
D13*
X012150Y007887D03*
X006780Y001557D03*
D14*
X008228Y001557D03*
X009676Y001557D03*
X012150Y009335D03*
X012150Y010783D03*
D15*
X010150Y006717D02*
X010150Y006197D01*
X009150Y006197D02*
X009150Y006717D01*
X008150Y006717D02*
X008150Y006197D01*
D16*
X008050Y018757D03*
X008534Y019357D03*
X007050Y018757D03*
X006566Y019357D03*
D17*
X004770Y009337D02*
X005090Y009017D01*
X005250Y009017D01*
X005250Y007551D01*
X005250Y006764D02*
X005250Y006697D01*
X007890Y006697D01*
X008130Y006457D01*
X007650Y006457D01*
X006650Y005457D01*
X006650Y002897D01*
X007410Y002137D01*
X006850Y001577D01*
X006780Y001557D01*
X007410Y002137D02*
X011650Y002137D01*
X011650Y002064D01*
X012690Y001577D02*
X009730Y001577D01*
X009676Y001557D01*
X008150Y006457D02*
X008130Y006457D01*
X008550Y008557D02*
X008530Y008617D01*
X007010Y008617D01*
X007010Y009497D01*
X006610Y009897D01*
X005570Y009897D01*
X005250Y010217D01*
X005250Y010251D01*
X005250Y009497D02*
X005250Y009464D01*
X005250Y009497D02*
X006530Y009497D01*
X005730Y009097D02*
X006930Y007897D01*
X012130Y007897D01*
X012150Y007887D01*
X011890Y009017D02*
X012130Y009257D01*
X012150Y009335D01*
X011890Y009017D02*
X009010Y009017D01*
X008550Y008557D01*
X008370Y009577D02*
X007570Y009577D01*
X007550Y009557D01*
X008370Y009577D02*
X008930Y010137D01*
X011490Y010137D01*
X012130Y010777D01*
X012150Y010783D01*
X011250Y010617D02*
X008610Y010617D01*
X008550Y010557D01*
X009170Y011417D02*
X010850Y011417D01*
X010850Y011817D02*
X010370Y011817D01*
X010210Y011657D01*
X009410Y011657D01*
X009250Y011817D01*
X005170Y011817D01*
X005410Y012057D02*
X005010Y012457D01*
X004450Y012457D01*
X004440Y012467D01*
X004450Y013417D02*
X004440Y013467D01*
X004450Y013417D02*
X005410Y012457D01*
X009010Y012457D01*
X009810Y012057D02*
X005410Y012057D01*
X004770Y011417D02*
X006530Y011417D01*
X007570Y013657D02*
X010370Y013657D01*
X010450Y013737D01*
X009950Y014157D02*
X009010Y015097D01*
X009330Y015897D02*
X008210Y015897D01*
X009010Y017257D02*
X009010Y018217D01*
X009250Y018937D02*
X009250Y020137D01*
X009010Y020377D01*
X009010Y021737D01*
X009490Y021737D01*
X009550Y021757D01*
X010050Y021977D02*
X009730Y022297D01*
X009010Y022297D01*
X009010Y025177D01*
X006530Y025177D01*
X006050Y024697D01*
X006050Y024657D01*
X005810Y024137D02*
X005490Y024457D01*
X005490Y026137D01*
X009490Y026137D01*
X009550Y026157D01*
X009490Y026697D02*
X010530Y026697D01*
X010550Y026657D01*
X010610Y026617D01*
X010610Y026377D01*
X012290Y024697D01*
X012350Y024657D01*
X012350Y023657D02*
X012290Y023657D01*
X010610Y025337D01*
X010610Y025657D01*
X010550Y025657D01*
X010550Y024657D02*
X010610Y024617D01*
X010610Y024377D01*
X012290Y022697D01*
X012350Y022657D01*
X012290Y021977D02*
X012290Y021657D01*
X012350Y021657D01*
X012290Y021977D02*
X010610Y023657D01*
X010550Y023657D01*
X010050Y021977D02*
X010050Y017897D01*
X010550Y018657D02*
X010610Y018617D01*
X011490Y017737D01*
X012210Y017737D01*
X012290Y017657D01*
X012350Y017657D01*
X012350Y018657D02*
X012290Y018697D01*
X011570Y018697D01*
X010610Y019657D01*
X010550Y019657D01*
X010610Y020617D02*
X010550Y020657D01*
X010610Y020617D02*
X011570Y019657D01*
X012350Y019657D01*
X012350Y020657D02*
X012290Y020697D01*
X011570Y020697D01*
X010610Y021657D01*
X010550Y021657D01*
X009250Y018937D02*
X007170Y016857D01*
X006690Y017337D02*
X007650Y018297D01*
X008290Y018297D01*
X009010Y019017D01*
X009010Y020057D01*
X007490Y021577D01*
X007490Y023977D01*
X007010Y024137D02*
X007490Y024617D01*
X007550Y024657D01*
X007010Y024137D02*
X005810Y024137D01*
X005550Y022957D02*
X005490Y022937D01*
X004850Y022937D01*
X004610Y022697D01*
X004550Y022657D01*
X005250Y022297D02*
X004610Y021657D01*
X004550Y021657D01*
X005250Y022297D02*
X005730Y022297D01*
X006210Y021817D01*
X006210Y021177D01*
X006050Y020857D02*
X005570Y021337D01*
X005570Y021737D01*
X005550Y021757D01*
X006050Y020857D02*
X006050Y020137D01*
X004610Y018697D01*
X004550Y018657D01*
X005250Y018697D02*
X006610Y020057D01*
X006610Y018697D02*
X007010Y018697D01*
X007050Y018757D01*
X007170Y018297D02*
X007010Y018137D01*
X007170Y018297D02*
X007250Y018297D01*
X007570Y018617D01*
X007570Y021177D01*
X007330Y021177D01*
X005550Y022957D01*
X007090Y022137D02*
X004610Y024617D01*
X004550Y024657D01*
X004550Y026657D02*
X004610Y026697D01*
X009010Y026697D01*
X009490Y026697D02*
X007570Y028617D01*
X007550Y028657D01*
X007490Y028697D01*
X006050Y028697D01*
X006050Y028657D01*
X005090Y029177D02*
X004610Y028697D01*
X004550Y028657D01*
X005090Y029177D02*
X009330Y029177D01*
X009810Y029657D01*
X010290Y030137D02*
X010370Y030217D01*
X010770Y030217D01*
X010610Y029657D02*
X010550Y029657D01*
X010540Y029657D02*
X010575Y029622D01*
X010610Y029657D01*
X010575Y029622D02*
X011090Y029107D01*
X011090Y027897D01*
X012290Y026697D01*
X012350Y026657D01*
X012350Y028657D02*
X011990Y028657D01*
X011090Y029557D01*
X010290Y030137D02*
X008610Y030137D01*
X008610Y029737D01*
X008610Y030137D02*
X005090Y030137D01*
X004610Y029657D01*
X004550Y029657D01*
X009010Y025177D02*
X009490Y025177D01*
X009550Y025157D01*
X006610Y018697D02*
X004450Y016537D01*
X004440Y016467D01*
X004450Y016457D01*
X009650Y016457D01*
X009950Y016157D01*
X009970Y016137D01*
X010450Y016137D01*
X011650Y017337D01*
X011250Y016457D02*
X011250Y015497D01*
X012690Y014057D01*
X012690Y001577D01*
X011250Y010617D02*
X011250Y015177D01*
X010930Y015497D01*
X010690Y015497D01*
X010450Y015737D01*
X010450Y016137D02*
X010850Y016137D01*
X010850Y015097D02*
X010850Y011817D01*
X009950Y012157D02*
X009890Y012137D01*
X009810Y012057D01*
X010050Y015157D02*
X010050Y015177D01*
X009330Y015897D01*
X007570Y013657D02*
X005250Y013657D01*
X004440Y014467D01*
X004770Y011417D02*
X004770Y009337D01*
D18*
X005730Y009097D03*
X006530Y009497D03*
X006530Y011417D03*
X007570Y013657D03*
X008210Y015897D03*
X009010Y015097D03*
X009010Y017257D03*
X009010Y018217D03*
X010050Y017897D03*
X010850Y016137D03*
X011250Y016457D03*
X011650Y017337D03*
X010850Y015097D03*
X010450Y015737D03*
X010450Y013737D03*
X010850Y011417D03*
X009170Y011417D03*
X009010Y012457D03*
X007170Y016857D03*
X006690Y017337D03*
X007010Y018137D03*
X006610Y020057D03*
X006210Y021177D03*
X007090Y022137D03*
X007490Y023977D03*
X009010Y026697D03*
X009810Y029657D03*
X008610Y029737D03*
X005250Y018697D03*
X005170Y011817D03*
M02*
