%
M48
M72
T01C0.0240
T02C0.0276
T03C0.0320
T04C0.0354
T05C0.0400
T06C0.0433
T07C0.0472
T08C0.1200
%
T01
X5170Y11817
X5730Y9097
X6530Y9497
X6530Y11417
X7570Y13657
X8210Y15897
X9010Y15097
X9010Y17257
X9010Y18217
X10050Y17897
X10850Y16137
X11250Y16457
X11650Y17337
X10850Y15097
X10450Y15737
X10450Y13737
X10850Y11417
X9170Y11417
X9010Y12457
X7170Y16857
X6690Y17337
X7010Y18137
X6610Y20057
X6210Y21177
X7090Y22137
X7490Y23977
X9010Y26697
X9810Y29657
X8610Y29737
X5250Y18697
T02
X6566Y19357
X7050Y18757
X8050Y18757
X8534Y19357
X5250Y10251
X5250Y9464
X5250Y7551
X5250Y6764
X5250Y4751
X5250Y3964
X11650Y5064
X11650Y5851
X11650Y2851
X11650Y2064
T03
X10150Y6457
X9150Y6457
X8150Y6457
T04
X9550Y20557
X9550Y21757
X9550Y22957
X7550Y24657
X6050Y24657
X5550Y22957
X5550Y21757
X5550Y20557
X6050Y28657
X7550Y28657
T05
X7050Y30657
X6050Y30657
X5050Y30657
X4550Y29657
X4550Y28657
X4550Y27657
X4550Y26657
X4550Y25657
X4550Y24657
X4550Y23657
X4550Y22657
X4550Y21657
X4550Y20657
X4550Y19657
X4550Y18657
X4440Y16467
X4440Y15467
X4440Y14467
X4440Y13467
X4440Y12467
X9950Y12157
X10050Y13157
X9950Y14157
X10050Y15157
X9950Y16157
X10050Y17157
X10550Y18657
X10550Y19657
X10550Y20657
X10550Y21657
X10550Y22657
X10550Y23657
X10550Y24657
X10550Y25657
X10550Y26657
X10550Y27657
X10550Y28657
X10550Y29657
X10050Y30657
X9050Y30657
X8050Y30657
X9550Y26157
X9550Y25157
X12350Y24657
X12350Y23657
X12350Y22657
X12350Y21657
X12350Y20657
X12350Y19657
X12350Y18657
X12350Y17657
X12350Y25657
X12350Y26657
X12350Y27657
X12350Y28657
T06
X8550Y10557
X8550Y8557
X7550Y9557
X9550Y9557
T07
X12150Y9335
X12150Y7887
X12150Y10783
X9676Y1557
X8228Y1557
X6780Y1557
T08
X4740Y1737
X8250Y4157
X12080Y30387
M30
