G75*
G70*
%OFA0B0*%
%FSLAX24Y24*%
%IPPOS*%
%LPD*%
%AMOC8*
5,1,8,0,0,1.08239X$1,22.5*
%
%ADD10C,0.0040*%
%ADD11C,0.0030*%
%ADD12C,0.0080*%
%ADD13C,0.0050*%
%ADD14C,0.0100*%
%ADD15C,0.0160*%
D10*
X005670Y004808D02*
X005977Y004808D01*
X005823Y004961D02*
X005823Y004654D01*
X010870Y003547D02*
X010870Y003317D01*
X011330Y003317D01*
X011253Y003163D02*
X011330Y003087D01*
X011330Y002933D01*
X011253Y002857D01*
X010946Y002857D01*
X010870Y002933D01*
X010870Y003087D01*
X010946Y003163D01*
X011253Y003163D01*
X011177Y003317D02*
X011177Y003547D01*
X011100Y003624D01*
X010946Y003624D01*
X010870Y003547D01*
X011177Y003470D02*
X011330Y003624D01*
X011253Y002703D02*
X011177Y002703D01*
X011100Y002626D01*
X011100Y002473D01*
X011023Y002396D01*
X010946Y002396D01*
X010870Y002473D01*
X010870Y002626D01*
X010946Y002703D01*
X010870Y002243D02*
X011330Y002243D01*
X010870Y001936D01*
X011330Y001936D01*
X011330Y001782D02*
X011330Y001475D01*
X010870Y001475D01*
X010870Y001782D01*
X010946Y001322D02*
X010870Y001245D01*
X010870Y001092D01*
X010946Y001015D01*
X011023Y001015D01*
X011100Y001092D01*
X011100Y001245D01*
X011177Y001322D01*
X011253Y001322D01*
X011330Y001245D01*
X011330Y001092D01*
X011253Y001015D01*
X011100Y001475D02*
X011100Y001629D01*
X011253Y002396D02*
X011330Y002473D01*
X011330Y002626D01*
X011253Y002703D01*
X012470Y003008D02*
X012700Y002777D01*
X012700Y003084D01*
X012930Y003008D02*
X012470Y003008D01*
X012546Y002184D02*
X012623Y002184D01*
X012700Y002108D01*
X012777Y002184D01*
X012853Y002184D01*
X012930Y002108D01*
X012930Y001954D01*
X012853Y001877D01*
X012700Y002031D02*
X012700Y002108D01*
X012546Y002184D02*
X012470Y002108D01*
X012470Y001954D01*
X012546Y001877D01*
X012546Y004777D02*
X012470Y004854D01*
X012470Y005008D01*
X012546Y005084D01*
X012623Y005084D01*
X012930Y004777D01*
X012930Y005084D01*
X012930Y005677D02*
X012930Y005984D01*
X012930Y005831D02*
X012470Y005831D01*
X012623Y005677D01*
D11*
X009207Y013908D02*
X009110Y013908D01*
X009062Y013956D01*
X009062Y014053D01*
X009110Y014101D01*
X009207Y014101D01*
X009255Y014053D01*
X009255Y013956D01*
X009207Y013908D01*
X009255Y014203D02*
X009255Y014348D01*
X009207Y014396D01*
X009110Y014396D01*
X009062Y014348D01*
X009062Y014203D01*
X009352Y014203D01*
X009207Y014497D02*
X009110Y014497D01*
X009062Y014546D01*
X009062Y014642D01*
X009110Y014691D01*
X009158Y014691D01*
X009158Y014497D01*
X009207Y014497D02*
X009255Y014546D01*
X009255Y014642D01*
X009255Y014792D02*
X009062Y014792D01*
X009062Y014937D01*
X009110Y014985D01*
X009255Y014985D01*
X009255Y015087D02*
X009255Y015183D01*
X009255Y015135D02*
X008965Y015135D01*
X008965Y015087D01*
X009110Y015283D02*
X009207Y015283D01*
X009255Y015331D01*
X009255Y015428D01*
X009207Y015477D01*
X009110Y015477D01*
X009062Y015428D01*
X009062Y015331D01*
X009110Y015283D01*
X009110Y015578D02*
X009207Y015578D01*
X009255Y015626D01*
X009255Y015771D01*
X009303Y015771D02*
X009062Y015771D01*
X009062Y015626D01*
X009110Y015578D01*
X009303Y015771D02*
X009352Y015723D01*
X009352Y015674D01*
X007932Y019482D02*
X007932Y019773D01*
X008125Y019773D01*
X008028Y019627D02*
X007932Y019627D01*
X007830Y019676D02*
X007830Y019482D01*
X007685Y019482D01*
X007637Y019531D01*
X007637Y019676D01*
X007536Y019482D02*
X007342Y019482D01*
X007439Y019482D02*
X007439Y019773D01*
X007342Y019676D01*
X007243Y019531D02*
X007195Y019531D01*
X007195Y019482D01*
X007243Y019482D01*
X007243Y019531D01*
X005495Y014692D02*
X005205Y014692D01*
X005205Y014499D01*
X005205Y014398D02*
X005495Y014398D01*
X005398Y014301D01*
X005495Y014204D01*
X005205Y014204D01*
X005350Y014103D02*
X005350Y013910D01*
X005253Y013808D02*
X005205Y013760D01*
X005205Y013663D01*
X005253Y013615D01*
X005447Y013615D01*
X005253Y013808D01*
X005447Y013808D01*
X005495Y013760D01*
X005495Y013663D01*
X005447Y013615D01*
X005350Y013514D02*
X005350Y013369D01*
X005302Y013320D01*
X005253Y013320D01*
X005205Y013369D01*
X005205Y013465D01*
X005253Y013514D01*
X005350Y013514D01*
X005447Y013417D01*
X005495Y013320D01*
X005495Y013958D02*
X005205Y013958D01*
X005350Y014103D02*
X005495Y013958D01*
X005495Y014499D02*
X005495Y014692D01*
X005350Y014692D02*
X005350Y014596D01*
X012745Y014567D02*
X012842Y014664D01*
X012745Y014760D01*
X013035Y014760D01*
X012890Y014862D02*
X012890Y015055D01*
X012987Y015156D02*
X012793Y015350D01*
X012987Y015350D01*
X013035Y015301D01*
X013035Y015205D01*
X012987Y015156D01*
X012793Y015156D01*
X012745Y015205D01*
X012745Y015301D01*
X012793Y015350D01*
X012890Y015451D02*
X012793Y015548D01*
X012745Y015644D01*
X012890Y015596D02*
X012890Y015451D01*
X012987Y015451D01*
X013035Y015499D01*
X013035Y015596D01*
X012987Y015644D01*
X012938Y015644D01*
X012890Y015596D01*
X013035Y015007D02*
X012745Y015007D01*
X012890Y014862D01*
X013035Y014567D02*
X012745Y014567D01*
X012745Y014466D02*
X012745Y014272D01*
X013035Y014272D01*
X013035Y014466D01*
X012890Y014369D02*
X012890Y014272D01*
D12*
X002888Y005538D02*
X002888Y003176D01*
X005959Y003176D01*
X005959Y003570D01*
X005250Y003570D01*
X005944Y002896D02*
X005944Y000455D01*
X010511Y000455D01*
X010511Y000140D01*
X005944Y000140D01*
X005944Y000455D01*
X005944Y002896D02*
X010511Y002896D01*
X010511Y000455D01*
X010941Y004276D02*
X010941Y004670D01*
X011650Y004670D01*
X010941Y004276D02*
X014012Y004276D01*
X014012Y006638D01*
X010941Y006638D01*
X010941Y006245D01*
X011650Y006245D01*
X010811Y007052D02*
X013252Y007052D01*
X013252Y011619D01*
X013567Y011619D01*
X013567Y007052D01*
X013252Y007052D01*
X013252Y011619D02*
X010811Y011619D01*
X010811Y007052D01*
X010250Y011657D02*
X009750Y011657D01*
X009500Y011907D01*
X009500Y012407D01*
X009750Y012657D01*
X010250Y012657D01*
X010500Y012407D01*
X010500Y011907D01*
X010250Y011657D01*
X010250Y012657D02*
X010500Y012907D01*
X010500Y013407D01*
X010250Y013657D01*
X009750Y013657D01*
X009500Y013907D01*
X009500Y014407D01*
X009750Y014657D01*
X010250Y014657D01*
X010500Y014407D01*
X010500Y013907D01*
X010250Y013657D01*
X010250Y014657D02*
X010500Y014907D01*
X010500Y015407D01*
X010250Y015657D01*
X009750Y015657D01*
X009500Y015907D01*
X009500Y016407D01*
X009750Y016657D01*
X010250Y016657D01*
X010500Y016407D01*
X010500Y015907D01*
X010250Y015657D01*
X010250Y016657D02*
X010500Y016907D01*
X010500Y017407D01*
X010250Y017657D01*
X009750Y017657D01*
X009500Y017407D01*
X009500Y016907D01*
X009750Y016657D01*
X009750Y015657D02*
X009500Y015407D01*
X009500Y014907D01*
X009750Y014657D01*
X009750Y013657D02*
X009500Y013407D01*
X009500Y012907D01*
X009750Y012657D01*
X012100Y017157D02*
X011850Y017407D01*
X011850Y017907D01*
X012100Y018157D01*
X011850Y018407D01*
X011850Y018907D01*
X012100Y019157D01*
X011850Y019407D01*
X011850Y019907D01*
X012100Y020157D01*
X011850Y020407D01*
X011850Y020907D01*
X012100Y021157D01*
X011850Y021407D01*
X011850Y021907D01*
X012100Y022157D01*
X011850Y022407D01*
X011850Y022907D01*
X012100Y023157D01*
X011850Y023407D01*
X011850Y023907D01*
X012100Y024157D01*
X011850Y024407D01*
X011850Y024907D01*
X012100Y025157D01*
X011850Y025407D01*
X011850Y025907D01*
X012100Y026157D01*
X011850Y026407D01*
X011850Y026907D01*
X012100Y027157D01*
X011850Y027407D01*
X011850Y027907D01*
X012100Y028157D01*
X011850Y028407D01*
X011850Y028907D01*
X012100Y029157D01*
X012600Y029157D01*
X012850Y028907D01*
X012850Y028407D01*
X012600Y028157D01*
X012850Y027907D01*
X012850Y027407D01*
X012600Y027157D01*
X012850Y026907D01*
X012850Y026407D01*
X012600Y026157D01*
X012850Y025907D01*
X012850Y025407D01*
X012600Y025157D01*
X012850Y024907D01*
X012850Y024407D01*
X012600Y024157D01*
X012850Y023907D01*
X012850Y023407D01*
X012600Y023157D01*
X012850Y022907D01*
X012850Y022407D01*
X012600Y022157D01*
X012850Y021907D01*
X012850Y021407D01*
X012600Y021157D01*
X012850Y020907D01*
X012850Y020407D01*
X012600Y020157D01*
X012850Y019907D01*
X012850Y019407D01*
X012600Y019157D01*
X012850Y018907D01*
X012850Y018407D01*
X012600Y018157D01*
X012850Y017907D01*
X012850Y017407D01*
X012600Y017157D01*
X012100Y017157D01*
X011050Y018407D02*
X010800Y018157D01*
X010300Y018157D01*
X010050Y018407D01*
X010050Y018907D01*
X010300Y019157D01*
X010050Y019407D01*
X010050Y019907D01*
X010300Y020157D01*
X010050Y020407D01*
X010050Y020907D01*
X010300Y021157D01*
X010050Y021407D01*
X010050Y021907D01*
X010300Y022157D01*
X010050Y022407D01*
X010050Y022907D01*
X010300Y023157D01*
X010050Y023407D01*
X010050Y023907D01*
X010300Y024157D01*
X010050Y024407D01*
X010050Y024907D01*
X010050Y025407D01*
X009800Y025657D01*
X010050Y025907D01*
X010050Y026407D01*
X009800Y026657D01*
X009300Y026657D01*
X009050Y026407D01*
X009050Y025907D01*
X009300Y025657D01*
X009050Y025407D01*
X009050Y024907D01*
X009300Y024657D01*
X009800Y024657D01*
X010050Y024907D01*
X010300Y025157D01*
X010050Y025407D01*
X010050Y025907D01*
X010300Y026157D01*
X010050Y026407D01*
X010050Y026907D01*
X010300Y027157D01*
X010050Y027407D01*
X010050Y027907D01*
X010300Y028157D01*
X010050Y028407D01*
X010050Y028907D01*
X010300Y029157D01*
X010050Y029407D01*
X010050Y029907D01*
X010300Y030157D01*
X010550Y030407D01*
X010550Y030907D01*
X010300Y031157D01*
X009800Y031157D01*
X009550Y030907D01*
X009300Y031157D01*
X008800Y031157D01*
X008550Y030907D01*
X008300Y031157D01*
X007800Y031157D01*
X007550Y030907D01*
X007300Y031157D01*
X006800Y031157D01*
X006550Y030907D01*
X006300Y031157D01*
X005800Y031157D01*
X005550Y030907D01*
X005300Y031157D01*
X004800Y031157D01*
X004550Y030907D01*
X004550Y030407D01*
X004800Y030157D01*
X005300Y030157D01*
X005550Y030407D01*
X005800Y030157D01*
X006300Y030157D01*
X006550Y030407D01*
X006800Y030157D01*
X007300Y030157D01*
X007550Y030407D01*
X007800Y030157D01*
X008300Y030157D01*
X008550Y030407D01*
X008800Y030157D01*
X009300Y030157D01*
X009550Y030407D01*
X009800Y030157D01*
X010300Y030157D01*
X010800Y030157D01*
X011050Y029907D01*
X011050Y029407D01*
X010800Y029157D01*
X011050Y028907D01*
X011050Y028407D01*
X010800Y028157D01*
X011050Y027907D01*
X011050Y027407D01*
X010800Y027157D01*
X011050Y026907D01*
X011050Y026407D01*
X010800Y026157D01*
X011050Y025907D01*
X011050Y025407D01*
X010800Y025157D01*
X011050Y024907D01*
X011050Y024407D01*
X010800Y024157D01*
X011050Y023907D01*
X011050Y023407D01*
X010800Y023157D01*
X011050Y022907D01*
X011050Y022407D01*
X010800Y022157D01*
X011050Y021907D01*
X011050Y021407D01*
X010800Y021157D01*
X011050Y020907D01*
X011050Y020407D01*
X010800Y020157D01*
X011050Y019907D01*
X011050Y019407D01*
X010800Y019157D01*
X011050Y018907D01*
X011050Y018407D01*
X008790Y020085D02*
X006310Y020085D01*
X006310Y021030D01*
X008790Y021030D01*
X008790Y020085D01*
X008790Y021285D02*
X006310Y021285D01*
X006310Y022230D01*
X008790Y022230D01*
X008790Y021285D01*
X008790Y022485D02*
X006310Y022485D01*
X006310Y023430D01*
X008790Y023430D01*
X008790Y022485D01*
X008022Y025417D02*
X008022Y027897D01*
X007078Y027897D01*
X007078Y025417D01*
X008022Y025417D01*
X006522Y025417D02*
X006522Y027897D01*
X005578Y027897D01*
X005578Y025417D01*
X006522Y025417D01*
X005050Y025407D02*
X005050Y025907D01*
X004800Y026157D01*
X005050Y026407D01*
X005050Y026907D01*
X004800Y027157D01*
X005050Y027407D01*
X005050Y027907D01*
X004800Y028157D01*
X005050Y028407D01*
X005050Y028907D01*
X004800Y029157D01*
X005050Y029407D01*
X005050Y029907D01*
X004800Y030157D01*
X004300Y030157D01*
X004050Y029907D01*
X004050Y029407D01*
X004300Y029157D01*
X004050Y028907D01*
X004050Y028407D01*
X004300Y028157D01*
X004050Y027907D01*
X004050Y027407D01*
X004300Y027157D01*
X004050Y026907D01*
X004050Y026407D01*
X004300Y026157D01*
X004050Y025907D01*
X004050Y025407D01*
X004300Y025157D01*
X004050Y024907D01*
X004050Y024407D01*
X004300Y024157D01*
X004050Y023907D01*
X004050Y023407D01*
X004300Y023157D01*
X004050Y022907D01*
X004050Y022407D01*
X004300Y022157D01*
X004050Y021907D01*
X004050Y021407D01*
X004300Y021157D01*
X004050Y020907D01*
X004050Y020407D01*
X004300Y020157D01*
X004050Y019907D01*
X004050Y019407D01*
X004300Y019157D01*
X004050Y018907D01*
X004050Y018407D01*
X004300Y018157D01*
X004800Y018157D01*
X005050Y018407D01*
X005050Y018907D01*
X004800Y019157D01*
X005050Y019407D01*
X005050Y019907D01*
X004800Y020157D01*
X005050Y020407D01*
X005050Y020907D01*
X004800Y021157D01*
X005050Y021407D01*
X005050Y021907D01*
X004800Y022157D01*
X005050Y022407D01*
X005050Y022907D01*
X004800Y023157D01*
X005050Y023407D01*
X005050Y023907D01*
X004800Y024157D01*
X005050Y024407D01*
X005050Y024907D01*
X004800Y025157D01*
X005050Y025407D01*
X007550Y019607D02*
X007550Y019107D01*
X007550Y019007D02*
X007550Y018507D01*
X004940Y016717D02*
X004940Y016217D01*
X004690Y015967D01*
X004940Y015717D01*
X004940Y015217D01*
X004690Y014967D01*
X004940Y014717D01*
X004940Y014217D01*
X004690Y013967D01*
X004940Y013717D01*
X004940Y013217D01*
X004690Y012967D01*
X004940Y012717D01*
X004940Y012217D01*
X004690Y011967D01*
X004190Y011967D01*
X003940Y012217D01*
X003940Y012717D01*
X004190Y012967D01*
X003940Y013217D01*
X003940Y013717D01*
X004190Y013967D01*
X003940Y014217D01*
X003940Y014717D01*
X004190Y014967D01*
X003940Y015217D01*
X003940Y015717D01*
X004190Y015967D01*
X003940Y016217D01*
X003940Y016717D01*
X004190Y016967D01*
X004690Y016967D01*
X004940Y016717D01*
X005959Y011038D02*
X002888Y011038D01*
X002888Y008676D01*
X005959Y008676D01*
X005959Y009070D01*
X005250Y009070D01*
X005250Y007945D02*
X005959Y007945D01*
X005959Y008338D01*
X002888Y008338D01*
X002888Y005976D01*
X005959Y005976D01*
X005959Y006370D01*
X005250Y006370D01*
X005250Y005145D02*
X005959Y005145D01*
X005959Y005538D01*
X002888Y005538D01*
X005250Y010645D02*
X005959Y010645D01*
X005959Y011038D01*
D13*
X008325Y005807D02*
X009975Y005807D01*
X009703Y006407D02*
X009597Y006407D01*
X010104Y006019D02*
X010077Y005963D01*
X010046Y005909D01*
X010012Y005857D01*
X009975Y005807D01*
X010100Y006904D02*
X010071Y006961D01*
X010038Y007017D01*
X010003Y007070D01*
X009963Y007121D01*
X009921Y007169D01*
X009876Y007215D01*
X009829Y007258D01*
X009779Y007298D01*
X009726Y007335D01*
X009671Y007368D01*
X009615Y007399D01*
X009556Y007425D01*
X009496Y007448D01*
X009435Y007468D01*
X009373Y007483D01*
X009310Y007495D01*
X009246Y007503D01*
X009182Y007507D01*
X009118Y007507D01*
X009054Y007503D01*
X008990Y007495D01*
X008927Y007483D01*
X008865Y007468D01*
X008804Y007448D01*
X008744Y007425D01*
X008685Y007399D01*
X008629Y007368D01*
X008574Y007335D01*
X008521Y007298D01*
X008471Y007258D01*
X008424Y007215D01*
X008379Y007169D01*
X008337Y007121D01*
X008297Y007070D01*
X008262Y007017D01*
X008229Y006961D01*
X008200Y006904D01*
X008597Y006407D02*
X008703Y006407D01*
X008200Y006010D02*
X008227Y005956D01*
X008257Y005905D01*
X008290Y005855D01*
X008325Y005807D01*
X008365Y020412D02*
X008229Y020502D01*
X008365Y020592D01*
X008229Y020683D02*
X008229Y020412D01*
X008115Y020412D02*
X007935Y020412D01*
X008025Y020412D02*
X008025Y020683D01*
X007935Y020592D01*
X007399Y021632D02*
X007309Y021632D01*
X007264Y021677D01*
X007444Y021858D01*
X007444Y021677D01*
X007399Y021632D01*
X007264Y021677D02*
X007264Y021858D01*
X007309Y021903D01*
X007399Y021903D01*
X007444Y021858D01*
X007150Y021858D02*
X007150Y021677D01*
X007105Y021632D01*
X007015Y021632D01*
X006970Y021677D01*
X007150Y021858D01*
X007105Y021903D01*
X007015Y021903D01*
X006970Y021858D01*
X006970Y021677D01*
X006855Y021632D02*
X006675Y021632D01*
X006765Y021632D02*
X006765Y021903D01*
X006675Y021812D01*
X007640Y022812D02*
X007820Y022812D01*
X007730Y022812D02*
X007730Y023083D01*
X007640Y022992D01*
X007935Y023038D02*
X007980Y023083D01*
X008070Y023083D01*
X008115Y023038D01*
X007935Y022857D01*
X007980Y022812D01*
X008070Y022812D01*
X008115Y022857D01*
X008115Y023038D01*
X008229Y023083D02*
X008229Y022812D01*
X008229Y022902D02*
X008365Y022992D01*
X008229Y022902D02*
X008365Y022812D01*
X007935Y022857D02*
X007935Y023038D01*
X007675Y025782D02*
X007495Y025962D01*
X007450Y025962D01*
X007405Y025917D01*
X007405Y025827D01*
X007450Y025782D01*
X007630Y026077D02*
X007630Y026122D01*
X007675Y026122D01*
X007675Y026077D01*
X007630Y026077D01*
X007675Y025962D02*
X007675Y025782D01*
X007675Y026224D02*
X007630Y026224D01*
X007450Y026404D01*
X007405Y026404D01*
X007405Y026224D01*
X007540Y026519D02*
X007540Y026654D01*
X007585Y026699D01*
X007630Y026699D01*
X007675Y026654D01*
X007675Y026564D01*
X007630Y026519D01*
X007540Y026519D01*
X007450Y026609D01*
X007405Y026699D01*
X007405Y026814D02*
X007675Y026814D01*
X007585Y026814D02*
X007675Y026949D01*
X007585Y026814D02*
X007495Y026949D01*
X006175Y026949D02*
X006085Y026814D01*
X005995Y026949D01*
X005905Y026814D02*
X006175Y026814D01*
X006130Y026699D02*
X006085Y026699D01*
X006040Y026654D01*
X006040Y026519D01*
X006130Y026519D01*
X006175Y026564D01*
X006175Y026654D01*
X006130Y026699D01*
X005950Y026609D02*
X006040Y026519D01*
X005950Y026609D02*
X005905Y026699D01*
X005905Y026404D02*
X005950Y026404D01*
X006130Y026224D01*
X006175Y026224D01*
X006175Y026122D02*
X006175Y026077D01*
X006130Y026077D01*
X006130Y026122D01*
X006175Y026122D01*
X006175Y025962D02*
X006175Y025782D01*
X005995Y025962D01*
X005950Y025962D01*
X005905Y025917D01*
X005905Y025827D01*
X005950Y025782D01*
X005905Y026224D02*
X005905Y026404D01*
D14*
X011200Y016657D02*
X011200Y016257D01*
X011200Y016657D02*
X011750Y016657D01*
X012600Y015957D02*
X012600Y013957D01*
X011750Y013257D02*
X011200Y013257D01*
X011200Y013657D01*
X009936Y008410D02*
X010103Y008243D01*
X010117Y008229D02*
X009853Y007965D01*
X009839Y007979D02*
X009672Y008146D01*
X006757Y009557D02*
X006759Y009645D01*
X006766Y009733D01*
X006776Y009820D01*
X006791Y009907D01*
X006811Y009993D01*
X006834Y010077D01*
X006862Y010161D01*
X006893Y010243D01*
X006929Y010324D01*
X006969Y010402D01*
X007012Y010479D01*
X007059Y010553D01*
X007110Y010625D01*
X007164Y010694D01*
X007221Y010761D01*
X007282Y010825D01*
X007346Y010886D01*
X007413Y010943D01*
X007482Y010997D01*
X007554Y011048D01*
X007628Y011095D01*
X007705Y011138D01*
X007783Y011178D01*
X007864Y011214D01*
X007946Y011245D01*
X008030Y011273D01*
X008114Y011296D01*
X008200Y011316D01*
X008287Y011331D01*
X008374Y011341D01*
X008462Y011348D01*
X008550Y011350D01*
X008638Y011348D01*
X008726Y011341D01*
X008813Y011331D01*
X008900Y011316D01*
X008986Y011296D01*
X009070Y011273D01*
X009154Y011245D01*
X009236Y011214D01*
X009317Y011178D01*
X009395Y011138D01*
X009472Y011095D01*
X009546Y011048D01*
X009618Y010997D01*
X009687Y010943D01*
X009754Y010886D01*
X009818Y010825D01*
X009879Y010761D01*
X009936Y010694D01*
X009990Y010625D01*
X010041Y010553D01*
X010088Y010479D01*
X010131Y010402D01*
X010171Y010324D01*
X010207Y010243D01*
X010238Y010161D01*
X010266Y010077D01*
X010289Y009993D01*
X010309Y009907D01*
X010324Y009820D01*
X010334Y009733D01*
X010341Y009645D01*
X010343Y009557D01*
X010341Y009469D01*
X010334Y009381D01*
X010324Y009294D01*
X010309Y009207D01*
X010289Y009121D01*
X010266Y009037D01*
X010238Y008953D01*
X010207Y008871D01*
X010171Y008790D01*
X010131Y008712D01*
X010088Y008635D01*
X010041Y008561D01*
X009990Y008489D01*
X009936Y008420D01*
X009879Y008353D01*
X009818Y008289D01*
X009754Y008228D01*
X009687Y008171D01*
X009618Y008117D01*
X009546Y008066D01*
X009472Y008019D01*
X009395Y007976D01*
X009317Y007936D01*
X009236Y007900D01*
X009154Y007869D01*
X009070Y007841D01*
X008986Y007818D01*
X008900Y007798D01*
X008813Y007783D01*
X008726Y007773D01*
X008638Y007766D01*
X008550Y007764D01*
X008462Y007766D01*
X008374Y007773D01*
X008287Y007783D01*
X008200Y007798D01*
X008114Y007818D01*
X008030Y007841D01*
X007946Y007869D01*
X007864Y007900D01*
X007783Y007936D01*
X007705Y007976D01*
X007628Y008019D01*
X007554Y008066D01*
X007482Y008117D01*
X007413Y008171D01*
X007346Y008228D01*
X007282Y008289D01*
X007221Y008353D01*
X007164Y008420D01*
X007110Y008489D01*
X007059Y008561D01*
X007012Y008635D01*
X006969Y008712D01*
X006929Y008790D01*
X006893Y008871D01*
X006862Y008953D01*
X006834Y009037D01*
X006811Y009121D01*
X006791Y009207D01*
X006776Y009294D01*
X006766Y009381D01*
X006759Y009469D01*
X006757Y009557D01*
D15*
X010909Y013957D02*
X010911Y013969D01*
X010916Y013980D01*
X010924Y013989D01*
X010935Y013995D01*
X010947Y013998D01*
X010959Y013997D01*
X010971Y013993D01*
X010980Y013985D01*
X010987Y013975D01*
X010991Y013963D01*
X010991Y013951D01*
X010987Y013939D01*
X010980Y013929D01*
X010970Y013921D01*
X010959Y013917D01*
X010947Y013916D01*
X010935Y013919D01*
X010924Y013925D01*
X010916Y013934D01*
X010911Y013945D01*
X010909Y013957D01*
M02*
