G75*
G70*
%OFA0B0*%
%FSLAX24Y24*%
%IPPOS*%
%LPD*%
%AMOC8*
5,1,8,0,0,1.08239X$1,22.5*
%
%ADD10C,0.0000*%
%ADD11C,0.0740*%
%ADD12C,0.0570*%
%ADD13C,0.0760*%
%ADD14R,0.0800X0.0800*%
%ADD15C,0.0800*%
%ADD16R,0.0709X0.0472*%
%ADD17R,0.0610X0.0236*%
%ADD18C,0.0520*%
%ADD19C,0.0650*%
%ADD20C,0.0100*%
%ADD21C,0.0400*%
D10*
X003650Y000457D02*
X003650Y031457D01*
X013150Y031457D01*
X013150Y000457D01*
X003650Y000457D01*
X004140Y001737D02*
X004142Y001786D01*
X004148Y001834D01*
X004158Y001882D01*
X004172Y001929D01*
X004189Y001975D01*
X004210Y002019D01*
X004235Y002061D01*
X004263Y002101D01*
X004295Y002139D01*
X004329Y002174D01*
X004366Y002206D01*
X004405Y002235D01*
X004447Y002261D01*
X004491Y002283D01*
X004536Y002301D01*
X004583Y002316D01*
X004630Y002327D01*
X004679Y002334D01*
X004728Y002337D01*
X004777Y002336D01*
X004825Y002331D01*
X004874Y002322D01*
X004921Y002309D01*
X004967Y002292D01*
X005011Y002272D01*
X005054Y002248D01*
X005095Y002221D01*
X005133Y002190D01*
X005169Y002157D01*
X005201Y002121D01*
X005231Y002082D01*
X005258Y002041D01*
X005281Y001997D01*
X005300Y001952D01*
X005316Y001906D01*
X005328Y001859D01*
X005336Y001810D01*
X005340Y001761D01*
X005340Y001713D01*
X005336Y001664D01*
X005328Y001615D01*
X005316Y001568D01*
X005300Y001522D01*
X005281Y001477D01*
X005258Y001433D01*
X005231Y001392D01*
X005201Y001353D01*
X005169Y001317D01*
X005133Y001284D01*
X005095Y001253D01*
X005054Y001226D01*
X005011Y001202D01*
X004967Y001182D01*
X004921Y001165D01*
X004874Y001152D01*
X004825Y001143D01*
X004777Y001138D01*
X004728Y001137D01*
X004679Y001140D01*
X004630Y001147D01*
X004583Y001158D01*
X004536Y001173D01*
X004491Y001191D01*
X004447Y001213D01*
X004405Y001239D01*
X004366Y001268D01*
X004329Y001300D01*
X004295Y001335D01*
X004263Y001373D01*
X004235Y001413D01*
X004210Y001455D01*
X004189Y001499D01*
X004172Y001545D01*
X004158Y001592D01*
X004148Y001640D01*
X004142Y001688D01*
X004140Y001737D01*
X007650Y004157D02*
X007652Y004206D01*
X007658Y004254D01*
X007668Y004302D01*
X007682Y004349D01*
X007699Y004395D01*
X007720Y004439D01*
X007745Y004481D01*
X007773Y004521D01*
X007805Y004559D01*
X007839Y004594D01*
X007876Y004626D01*
X007915Y004655D01*
X007957Y004681D01*
X008001Y004703D01*
X008046Y004721D01*
X008093Y004736D01*
X008140Y004747D01*
X008189Y004754D01*
X008238Y004757D01*
X008287Y004756D01*
X008335Y004751D01*
X008384Y004742D01*
X008431Y004729D01*
X008477Y004712D01*
X008521Y004692D01*
X008564Y004668D01*
X008605Y004641D01*
X008643Y004610D01*
X008679Y004577D01*
X008711Y004541D01*
X008741Y004502D01*
X008768Y004461D01*
X008791Y004417D01*
X008810Y004372D01*
X008826Y004326D01*
X008838Y004279D01*
X008846Y004230D01*
X008850Y004181D01*
X008850Y004133D01*
X008846Y004084D01*
X008838Y004035D01*
X008826Y003988D01*
X008810Y003942D01*
X008791Y003897D01*
X008768Y003853D01*
X008741Y003812D01*
X008711Y003773D01*
X008679Y003737D01*
X008643Y003704D01*
X008605Y003673D01*
X008564Y003646D01*
X008521Y003622D01*
X008477Y003602D01*
X008431Y003585D01*
X008384Y003572D01*
X008335Y003563D01*
X008287Y003558D01*
X008238Y003557D01*
X008189Y003560D01*
X008140Y003567D01*
X008093Y003578D01*
X008046Y003593D01*
X008001Y003611D01*
X007957Y003633D01*
X007915Y003659D01*
X007876Y003688D01*
X007839Y003720D01*
X007805Y003755D01*
X007773Y003793D01*
X007745Y003833D01*
X007720Y003875D01*
X007699Y003919D01*
X007682Y003965D01*
X007668Y004012D01*
X007658Y004060D01*
X007652Y004108D01*
X007650Y004157D01*
X011480Y030387D02*
X011482Y030436D01*
X011488Y030484D01*
X011498Y030532D01*
X011512Y030579D01*
X011529Y030625D01*
X011550Y030669D01*
X011575Y030711D01*
X011603Y030751D01*
X011635Y030789D01*
X011669Y030824D01*
X011706Y030856D01*
X011745Y030885D01*
X011787Y030911D01*
X011831Y030933D01*
X011876Y030951D01*
X011923Y030966D01*
X011970Y030977D01*
X012019Y030984D01*
X012068Y030987D01*
X012117Y030986D01*
X012165Y030981D01*
X012214Y030972D01*
X012261Y030959D01*
X012307Y030942D01*
X012351Y030922D01*
X012394Y030898D01*
X012435Y030871D01*
X012473Y030840D01*
X012509Y030807D01*
X012541Y030771D01*
X012571Y030732D01*
X012598Y030691D01*
X012621Y030647D01*
X012640Y030602D01*
X012656Y030556D01*
X012668Y030509D01*
X012676Y030460D01*
X012680Y030411D01*
X012680Y030363D01*
X012676Y030314D01*
X012668Y030265D01*
X012656Y030218D01*
X012640Y030172D01*
X012621Y030127D01*
X012598Y030083D01*
X012571Y030042D01*
X012541Y030003D01*
X012509Y029967D01*
X012473Y029934D01*
X012435Y029903D01*
X012394Y029876D01*
X012351Y029852D01*
X012307Y029832D01*
X012261Y029815D01*
X012214Y029802D01*
X012165Y029793D01*
X012117Y029788D01*
X012068Y029787D01*
X012019Y029790D01*
X011970Y029797D01*
X011923Y029808D01*
X011876Y029823D01*
X011831Y029841D01*
X011787Y029863D01*
X011745Y029889D01*
X011706Y029918D01*
X011669Y029950D01*
X011635Y029985D01*
X011603Y030023D01*
X011575Y030063D01*
X011550Y030105D01*
X011529Y030149D01*
X011512Y030195D01*
X011498Y030242D01*
X011488Y030290D01*
X011482Y030338D01*
X011480Y030387D01*
D11*
X012350Y028657D03*
X012350Y027657D03*
X012350Y026657D03*
X012350Y025657D03*
X012350Y024657D03*
X012350Y023657D03*
X012350Y022657D03*
X012350Y021657D03*
X012350Y020657D03*
X012350Y019657D03*
X012350Y018657D03*
X012350Y017657D03*
X010550Y018657D03*
X010550Y019657D03*
X010550Y020657D03*
X010550Y021657D03*
X010550Y022657D03*
X010550Y023657D03*
X010550Y024657D03*
X010550Y025657D03*
X010550Y026657D03*
X010550Y027657D03*
X010550Y028657D03*
X010550Y029657D03*
X010050Y030657D03*
X009050Y030657D03*
X008050Y030657D03*
X007550Y028657D03*
X007050Y030657D03*
X006050Y030657D03*
X006050Y028657D03*
X005050Y030657D03*
X004550Y029657D03*
X004550Y028657D03*
X004550Y027657D03*
X004550Y026657D03*
X004550Y025657D03*
X004550Y024657D03*
X004550Y023657D03*
X004550Y022657D03*
X004550Y021657D03*
X004550Y020657D03*
X004550Y019657D03*
X004550Y018657D03*
X005550Y020557D03*
X005550Y021757D03*
X005550Y022957D03*
X006050Y024657D03*
X007550Y024657D03*
X009550Y025157D03*
X009550Y026157D03*
X009550Y022957D03*
X009550Y021757D03*
X009550Y020557D03*
X010050Y017157D03*
X009950Y016157D03*
X010050Y015157D03*
X009950Y014157D03*
X010050Y013157D03*
X009950Y012157D03*
X004440Y012467D03*
X004440Y013467D03*
X004440Y014467D03*
X004440Y015467D03*
X004440Y016467D03*
D12*
X005250Y010251D03*
X005250Y009464D03*
X005250Y007551D03*
X005250Y006764D03*
X005250Y004751D03*
X005250Y003964D03*
X011650Y005064D03*
X011650Y005851D03*
X011650Y002851D03*
X011650Y002064D03*
D13*
X008550Y008557D03*
X008550Y010557D03*
X007550Y009557D03*
X009550Y009557D03*
D14*
X012150Y007887D03*
X006780Y001557D03*
D15*
X008228Y001557D03*
X009676Y001557D03*
X012150Y009335D03*
X012150Y010783D03*
D16*
X012326Y013446D03*
X012326Y016438D03*
D17*
X011450Y015926D03*
X011450Y015532D03*
X011450Y015138D03*
X011450Y014745D03*
X011450Y014351D03*
X011450Y013957D03*
D18*
X010150Y006717D02*
X010150Y006197D01*
X009150Y006197D02*
X009150Y006717D01*
X008150Y006717D02*
X008150Y006197D01*
D19*
X008050Y018757D03*
X008534Y019357D03*
X007050Y018757D03*
X006566Y019357D03*
D20*
X006610Y019337D01*
X006610Y019177D01*
X007010Y018777D01*
X007050Y018757D01*
X007010Y018137D02*
X007090Y018057D01*
X007090Y017257D01*
X006770Y016937D01*
X006770Y011657D01*
X006530Y011417D01*
X007170Y010137D02*
X007170Y016857D01*
X006690Y017337D02*
X006130Y016777D01*
X006130Y005657D01*
X005250Y004777D01*
X005250Y004751D01*
X004770Y004457D02*
X005250Y003977D01*
X005250Y003964D01*
X005254Y003967D01*
X006260Y003967D01*
X006640Y003587D01*
X006640Y002897D01*
X007960Y001577D01*
X008210Y001577D01*
X008228Y001557D01*
X008290Y001577D01*
X008290Y002777D01*
X011650Y002777D01*
X011650Y002851D01*
X011650Y002857D01*
X011650Y005064D02*
X011650Y005097D01*
X009300Y005097D01*
X008600Y005797D01*
X008600Y007727D01*
X008610Y007737D01*
X007970Y008377D01*
X007970Y009177D01*
X008530Y009737D01*
X008530Y010537D01*
X008550Y010557D01*
X009010Y010217D02*
X009090Y010297D01*
X009090Y011017D01*
X008610Y011497D01*
X008610Y017337D01*
X009490Y018217D01*
X009490Y020537D01*
X009550Y020557D01*
X008534Y019357D02*
X008530Y019337D01*
X008530Y019257D01*
X008210Y018937D01*
X008050Y018757D01*
X008050Y016057D01*
X008210Y015897D01*
X007970Y015657D01*
X007970Y009977D01*
X007550Y009557D01*
X007570Y009497D01*
X007730Y009337D01*
X007730Y006857D01*
X008130Y006457D01*
X008150Y006457D01*
X009090Y006457D02*
X009150Y006457D01*
X009090Y006457D02*
X009090Y009257D01*
X009010Y009337D01*
X009010Y010217D01*
X009570Y009577D02*
X009570Y011497D01*
X009410Y011657D01*
X009410Y017737D01*
X010050Y018377D01*
X010050Y025657D01*
X009550Y026157D01*
X009010Y026697D02*
X009010Y024937D01*
X009250Y024697D01*
X009250Y023257D01*
X009550Y022957D01*
X009010Y024617D02*
X008610Y025017D01*
X008610Y029737D01*
X008290Y030137D02*
X009410Y030137D01*
X009410Y029577D01*
X009730Y029257D01*
X010530Y029257D01*
X010530Y029657D01*
X010550Y029657D01*
X010370Y030217D02*
X009810Y029657D01*
X010370Y030217D02*
X010770Y030217D01*
X011090Y029897D01*
X011090Y028857D01*
X012290Y027657D01*
X012350Y027657D01*
X011090Y026857D02*
X012290Y025657D01*
X012350Y025657D01*
X012290Y025657D02*
X011650Y025017D01*
X011650Y017337D01*
X011250Y016457D02*
X011250Y021977D01*
X010610Y022617D01*
X010550Y022657D01*
X009010Y024617D02*
X009010Y018217D01*
X009010Y017257D02*
X009010Y015097D01*
X009010Y012457D02*
X009170Y012297D01*
X009170Y011417D01*
X009570Y009577D02*
X009550Y009557D01*
X009570Y009497D01*
X009570Y005737D01*
X010290Y005737D01*
X010370Y005817D01*
X011650Y005817D01*
X011650Y005851D01*
X010850Y007097D02*
X010210Y006457D01*
X010150Y006457D01*
X010850Y007097D02*
X010850Y011417D01*
X010850Y014297D01*
X011410Y014297D01*
X011450Y014351D01*
X011410Y014697D02*
X011450Y014745D01*
X011410Y014697D02*
X010450Y014697D01*
X010450Y013737D01*
X010850Y015097D02*
X011410Y015097D01*
X011450Y015138D01*
X011490Y015497D02*
X011450Y015532D01*
X011410Y015577D01*
X011170Y015577D01*
X011010Y015737D01*
X011010Y015977D01*
X010850Y016137D01*
X010610Y016377D02*
X010450Y016217D01*
X010450Y015737D01*
X010610Y016377D02*
X010610Y017337D01*
X010050Y017897D01*
X011490Y015497D02*
X011730Y015497D01*
X011890Y015337D01*
X011890Y013977D01*
X011490Y013977D01*
X011450Y013957D01*
X011490Y013897D01*
X011570Y013817D01*
X011570Y009897D01*
X012130Y009337D01*
X012150Y009335D01*
X008050Y018757D02*
X008050Y018777D01*
X008210Y018937D01*
X008210Y027977D01*
X007570Y028617D01*
X007550Y028657D01*
X007010Y028857D02*
X008290Y030137D01*
X007010Y028857D02*
X007010Y024457D01*
X007490Y023977D01*
X007090Y022137D02*
X007570Y021657D01*
X007570Y013657D01*
X007170Y010137D02*
X006530Y009497D01*
X005730Y009097D02*
X005730Y016697D01*
X006050Y017017D01*
X006050Y021017D01*
X006210Y021177D01*
X006050Y021497D02*
X006050Y023177D01*
X005570Y023657D01*
X004550Y023657D01*
X005490Y024057D02*
X006610Y022937D01*
X006610Y020057D01*
X005810Y020857D02*
X005810Y021257D01*
X006050Y021497D01*
X005810Y020857D02*
X005570Y020617D01*
X005550Y020557D01*
X005250Y018697D02*
X005090Y018537D01*
X005090Y016137D01*
X004450Y015497D01*
X004440Y015467D01*
X004450Y015417D01*
X005010Y014857D01*
X005010Y011977D01*
X005170Y011817D01*
X004450Y011097D02*
X004770Y010777D01*
X004770Y004457D01*
X005250Y003964D02*
X005250Y003897D01*
X005250Y010251D02*
X005250Y010297D01*
X004770Y010777D01*
X004450Y011097D02*
X004450Y012457D01*
X004440Y012467D01*
X005490Y024057D02*
X005490Y024777D01*
X004610Y025657D01*
X004550Y025657D01*
X009010Y026697D02*
X009010Y027097D01*
X010530Y028617D01*
X010550Y028657D01*
X010610Y028617D01*
X011090Y028137D01*
X011090Y026857D01*
D21*
X009810Y029657D03*
X008610Y029737D03*
X009010Y026697D03*
X007490Y023977D03*
X007090Y022137D03*
X006210Y021177D03*
X006610Y020057D03*
X007010Y018137D03*
X006690Y017337D03*
X007170Y016857D03*
X008210Y015897D03*
X009010Y015097D03*
X009010Y017257D03*
X009010Y018217D03*
X010050Y017897D03*
X010850Y016137D03*
X011250Y016457D03*
X011650Y017337D03*
X010850Y015097D03*
X010450Y015737D03*
X010450Y013737D03*
X010850Y011417D03*
X009170Y011417D03*
X009010Y012457D03*
X007570Y013657D03*
X006530Y011417D03*
X006530Y009497D03*
X005730Y009097D03*
X005170Y011817D03*
X005250Y018697D03*
M02*
