%
M48
M72
T01C0.0240
T02C0.0276
T03C0.0320
T04C0.0354
T05C0.0400
T06C0.0433
T07C0.0472
T08C0.1200
%
T01
X2982Y9097
X3782Y9497
X3782Y11417
X4822Y13657
X5462Y15897
X6262Y15097
X6262Y17257
X6262Y18217
X7302Y17897
X8102Y16137
X8502Y16457
X8902Y17337
X8102Y15097
X7702Y15737
X7702Y13737
X8102Y11417
X6422Y11417
X6262Y12457
X4422Y16857
X3942Y17337
X4262Y18137
X3862Y20057
X3462Y21177
X4342Y22137
X4742Y23977
X6262Y26697
X7062Y29657
X5862Y29737
X2502Y18697
X2422Y11817
T02
X2502Y10251
X2502Y9464
X2502Y7551
X2502Y6764
X2502Y4751
X2502Y3964
X4302Y18757
X3818Y19357
X5302Y18757
X5786Y19357
X8902Y5851
X8902Y5064
X8902Y2851
X8902Y2064
T03
X7402Y6457
X6402Y6457
X5402Y6457
T04
X6802Y20557
X6802Y21757
X6802Y22957
X4802Y24657
X4802Y28657
X3302Y28657
X3302Y24657
X2802Y22957
X2802Y21757
X2802Y20557
T05
X1802Y20657
X1802Y19657
X1802Y18657
X1692Y16467
X1692Y15467
X1692Y14467
X1692Y13467
X1692Y12467
X1802Y21657
X1802Y22657
X1802Y23657
X1802Y24657
X1802Y25657
X1802Y26657
X1802Y27657
X1802Y28657
X1802Y29657
X2302Y30657
X3302Y30657
X4302Y30657
X5302Y30657
X6302Y30657
X7302Y30657
X7802Y29657
X7802Y28657
X7802Y27657
X7802Y26657
X7802Y25657
X7802Y24657
X7802Y23657
X7802Y22657
X7802Y21657
X7802Y20657
X7802Y19657
X7802Y18657
X7302Y17157
X7202Y16157
X7302Y15157
X7202Y14157
X7302Y13157
X7202Y12157
X9602Y17657
X9602Y18657
X9602Y19657
X9602Y20657
X9602Y21657
X9602Y22657
X9602Y23657
X9602Y24657
X9602Y25657
X9602Y26657
X9602Y27657
X9602Y28657
X6802Y26157
X6802Y25157
T06
X5802Y10557
X5802Y8557
X4802Y9557
X6802Y9557
T07
X9402Y9335
X9402Y7887
X9402Y10783
X6928Y1557
X5480Y1557
X4032Y1557
T08
X1992Y1737
X5502Y4157
X9332Y30387
M30
