G75*
G70*
%OFA0B0*%
%FSLAX24Y24*%
%IPPOS*%
%LPD*%
%AMOC8*
5,1,8,0,0,1.08239X$1,22.5*
%
%ADD10C,0.0060*%
%ADD11C,0.0020*%
%ADD12C,0.0040*%
%ADD13C,0.0030*%
%ADD14C,0.0010*%
%ADD15C,0.0100*%
%ADD16C,0.0080*%
D10*
X001132Y003554D02*
X001773Y003554D01*
X001773Y003874D01*
X001666Y003981D01*
X001452Y003981D01*
X001346Y003874D01*
X001346Y003554D01*
X001346Y003767D02*
X001132Y003981D01*
X001132Y004198D02*
X001559Y004198D01*
X001773Y004412D01*
X001559Y004625D01*
X001132Y004625D01*
X001132Y004843D02*
X001346Y005056D01*
X001132Y005270D01*
X001773Y005270D01*
X001773Y004843D02*
X001132Y004843D01*
X001452Y004625D02*
X001452Y004198D01*
X005903Y019717D02*
X005903Y020144D01*
X005903Y019931D02*
X005262Y019931D01*
X005262Y020362D02*
X005903Y020362D01*
X005689Y020469D02*
X005689Y020682D01*
X005582Y020789D01*
X005262Y020789D01*
X005369Y021006D02*
X005262Y021113D01*
X005262Y021327D01*
X005262Y021651D02*
X005689Y021651D01*
X005476Y021651D02*
X005689Y021864D01*
X005689Y021971D01*
X005689Y022188D02*
X005689Y022295D01*
X005582Y022402D01*
X005689Y022508D01*
X005582Y022615D01*
X005262Y022615D01*
X005262Y022402D02*
X005582Y022402D01*
X005689Y022188D02*
X005262Y022188D01*
X005369Y022833D02*
X005262Y022939D01*
X005262Y023260D01*
X005582Y023260D01*
X005689Y023153D01*
X005689Y022939D01*
X005476Y022939D02*
X005476Y023260D01*
X005476Y022939D02*
X005369Y022833D01*
X005262Y023477D02*
X005262Y023904D01*
X005369Y024122D02*
X005262Y024229D01*
X005262Y024442D01*
X005369Y024549D01*
X005582Y024549D01*
X005689Y024442D01*
X005689Y024229D01*
X005582Y024122D01*
X005369Y024122D01*
X005369Y024766D02*
X005262Y024873D01*
X005262Y025193D01*
X005369Y025411D02*
X005262Y025518D01*
X005262Y025731D01*
X005369Y025838D01*
X005582Y025838D01*
X005689Y025731D01*
X005689Y025518D01*
X005582Y025411D01*
X005369Y025411D01*
X005689Y025193D02*
X005689Y024873D01*
X005582Y024766D01*
X005369Y024766D01*
X005262Y023477D02*
X005903Y023477D01*
X005582Y021433D02*
X005476Y021433D01*
X005476Y021006D01*
X005582Y021006D02*
X005689Y021113D01*
X005689Y021327D01*
X005582Y021433D01*
X005582Y021006D02*
X005369Y021006D01*
X005689Y020469D02*
X005582Y020362D01*
X005262Y026055D02*
X005262Y026482D01*
X005369Y026700D02*
X005262Y026807D01*
X005262Y027020D01*
X005369Y027127D01*
X005582Y027127D01*
X005689Y027020D01*
X005689Y026807D01*
X005582Y026700D01*
X005369Y026700D01*
X005369Y027344D02*
X005262Y027451D01*
X005262Y027772D01*
X005155Y027772D02*
X005689Y027772D01*
X005689Y027451D01*
X005582Y027344D01*
X005369Y027344D01*
X005049Y027665D02*
X005155Y027772D01*
X005049Y027665D02*
X005049Y027558D01*
X005369Y027989D02*
X005262Y028096D01*
X005262Y028416D01*
X005155Y028416D02*
X005689Y028416D01*
X005689Y028096D01*
X005582Y027989D01*
X005369Y027989D01*
X005049Y028309D02*
X005155Y028416D01*
X005049Y028309D02*
X005049Y028203D01*
X005369Y028634D02*
X005262Y028740D01*
X005262Y028954D01*
X005262Y029278D02*
X005689Y029278D01*
X005476Y029278D02*
X005689Y029492D01*
X005689Y029598D01*
X005582Y029061D02*
X005476Y029061D01*
X005476Y028634D01*
X005582Y028634D02*
X005689Y028740D01*
X005689Y028954D01*
X005582Y029061D01*
X005582Y028634D02*
X005369Y028634D01*
X005262Y026055D02*
X005903Y026055D01*
D11*
X001359Y008072D02*
X001176Y008072D01*
X001139Y008035D01*
X001139Y007998D01*
X001212Y007961D02*
X001212Y008072D01*
X001212Y007961D02*
X001249Y007925D01*
X001359Y007925D01*
X001359Y007851D02*
X001359Y007814D01*
X001286Y007741D01*
X001359Y007741D02*
X001212Y007741D01*
X001212Y007666D02*
X001212Y007556D01*
X001249Y007520D01*
X001286Y007556D01*
X001286Y007666D01*
X001322Y007666D02*
X001212Y007666D01*
X001322Y007666D02*
X001359Y007630D01*
X001359Y007556D01*
X001359Y007446D02*
X001359Y007372D01*
X001396Y007409D02*
X001249Y007409D01*
X001212Y007446D01*
X001212Y007298D02*
X001322Y007298D01*
X001359Y007261D01*
X001359Y007151D01*
X001212Y007151D01*
X001286Y007077D02*
X001286Y006930D01*
X001322Y006930D02*
X001359Y006967D01*
X001359Y007040D01*
X001322Y007077D01*
X001286Y007077D01*
X001212Y007040D02*
X001212Y006967D01*
X001249Y006930D01*
X001322Y006930D01*
X001322Y006856D02*
X001212Y006856D01*
X001212Y006783D02*
X001322Y006783D01*
X001359Y006819D01*
X001322Y006856D01*
X001322Y006783D02*
X001359Y006746D01*
X001359Y006709D01*
X001212Y006709D01*
X001249Y006635D02*
X001322Y006635D01*
X001359Y006598D01*
X001359Y006525D01*
X001322Y006488D01*
X001249Y006488D01*
X001212Y006525D01*
X001212Y006598D01*
X001249Y006635D01*
X001212Y006414D02*
X001322Y006414D01*
X001359Y006377D01*
X001322Y006341D01*
X001212Y006341D01*
X001212Y006267D02*
X001359Y006267D01*
X001359Y006304D01*
X001322Y006341D01*
D12*
X001452Y008877D02*
X001375Y008954D01*
X001375Y009261D01*
X001452Y009338D01*
X001605Y009338D01*
X001682Y009261D01*
X001682Y009184D01*
X001605Y009108D01*
X001375Y009108D01*
X001452Y008877D02*
X001605Y008877D01*
X001682Y008954D01*
X001722Y010377D02*
X001722Y010838D01*
X001415Y010377D01*
X001415Y010838D01*
X001261Y010838D02*
X001031Y010838D01*
X000954Y010761D01*
X000954Y010454D01*
X001031Y010377D01*
X001261Y010377D01*
X001261Y010838D01*
X001875Y010761D02*
X001952Y010838D01*
X002105Y010838D01*
X002182Y010761D01*
X002182Y010454D01*
X002105Y010377D01*
X001952Y010377D01*
X001875Y010454D01*
X001875Y010608D01*
X002029Y010608D01*
X003975Y009661D02*
X003975Y009584D01*
X004052Y009508D01*
X003975Y009431D01*
X003975Y009354D01*
X004052Y009277D01*
X004205Y009277D01*
X004282Y009354D01*
X004129Y009508D02*
X004052Y009508D01*
X003975Y009661D02*
X004052Y009738D01*
X004205Y009738D01*
X004282Y009661D01*
X005075Y010877D02*
X005382Y010877D01*
X005075Y011184D01*
X005075Y011261D01*
X005152Y011338D01*
X005305Y011338D01*
X005382Y011261D01*
X005552Y008138D02*
X005782Y007908D01*
X005475Y007908D01*
X005552Y008138D02*
X005552Y007677D01*
X007175Y009777D02*
X007482Y009777D01*
X007329Y009777D02*
X007329Y010238D01*
X007482Y010084D01*
X008369Y010686D02*
X008369Y010763D01*
X008445Y010840D01*
X008829Y010840D01*
X008829Y010533D02*
X008599Y010533D01*
X008522Y010609D01*
X008522Y010840D01*
X008522Y010379D02*
X008522Y010149D01*
X008599Y010072D01*
X008676Y010149D01*
X008676Y010379D01*
X008752Y010379D02*
X008522Y010379D01*
X008522Y009919D02*
X008522Y009765D01*
X008522Y009842D02*
X008983Y009842D01*
X008983Y009765D01*
X008829Y009535D02*
X008829Y009305D01*
X008369Y009305D01*
X008522Y009305D02*
X008522Y009535D01*
X008599Y009612D01*
X008752Y009612D01*
X008829Y009535D01*
X008829Y009152D02*
X008829Y008921D01*
X008752Y008845D01*
X008676Y008921D01*
X008676Y009075D01*
X008599Y009152D01*
X008522Y009075D01*
X008522Y008845D01*
X008522Y008691D02*
X008522Y008538D01*
X008522Y008614D02*
X008829Y008614D01*
X008829Y008538D01*
X008829Y008384D02*
X008829Y008154D01*
X008752Y008077D01*
X008599Y008077D01*
X008522Y008154D01*
X008522Y008384D01*
X008983Y008384D01*
X008983Y008614D02*
X009059Y008614D01*
X008829Y010149D02*
X008829Y010303D01*
X008752Y010379D01*
X009822Y010350D02*
X009976Y010503D01*
X010283Y010503D01*
X010206Y010657D02*
X010283Y010733D01*
X010283Y010887D01*
X010206Y010963D01*
X010206Y011117D02*
X009899Y011117D01*
X009822Y011194D01*
X009822Y011347D01*
X009899Y011424D01*
X009899Y010963D02*
X009822Y010887D01*
X009822Y010733D01*
X009899Y010657D01*
X010206Y010657D01*
X010283Y010196D02*
X009976Y010196D01*
X009822Y010350D01*
X009899Y009824D02*
X010206Y009824D01*
X010283Y009747D01*
X010283Y009517D01*
X009822Y009517D01*
X009822Y009747D01*
X009899Y009824D01*
X009822Y009363D02*
X010283Y009363D01*
X010283Y009057D02*
X009822Y009363D01*
X009822Y009057D02*
X010283Y009057D01*
X010206Y008903D02*
X010283Y008826D01*
X010283Y008673D01*
X010206Y008596D01*
X009899Y008596D01*
X009822Y008673D01*
X009822Y008826D01*
X009899Y008903D01*
X010052Y008903D01*
X010052Y008750D01*
X009976Y007524D02*
X009899Y007524D01*
X009822Y007447D01*
X009822Y007294D01*
X009899Y007217D01*
X010052Y007217D01*
X010052Y007447D01*
X009976Y007524D01*
X010206Y007370D02*
X010052Y007217D01*
X010206Y007370D02*
X010283Y007524D01*
X009722Y005924D02*
X009722Y005617D01*
X009722Y005770D02*
X010183Y005770D01*
X010029Y005617D01*
X010029Y005024D02*
X010106Y005024D01*
X010183Y004947D01*
X010183Y004794D01*
X010106Y004717D01*
X010029Y005024D02*
X009722Y004717D01*
X009722Y005024D01*
X009952Y003024D02*
X009952Y002717D01*
X010183Y002947D01*
X009722Y002947D01*
X009799Y002224D02*
X009722Y002147D01*
X009722Y001994D01*
X009799Y001917D01*
X009952Y002147D02*
X009876Y002224D01*
X009799Y002224D01*
X009952Y002147D02*
X009952Y002070D01*
X009952Y002147D02*
X010029Y002224D01*
X010106Y002224D01*
X010183Y002147D01*
X010183Y001994D01*
X010106Y001917D01*
X008406Y004015D02*
X008483Y004092D01*
X008483Y004245D01*
X008406Y004322D01*
X008483Y004475D02*
X008022Y004475D01*
X008022Y004782D01*
X008022Y004936D02*
X008483Y004936D01*
X008022Y005243D01*
X008483Y005243D01*
X008406Y005396D02*
X008329Y005396D01*
X008252Y005473D01*
X008252Y005626D01*
X008176Y005703D01*
X008099Y005703D01*
X008022Y005626D01*
X008022Y005473D01*
X008099Y005396D01*
X008099Y005857D02*
X008022Y005933D01*
X008022Y006087D01*
X008099Y006163D01*
X008406Y006163D01*
X008483Y006087D01*
X008483Y005933D01*
X008406Y005857D01*
X008099Y005857D01*
X008176Y006317D02*
X008176Y006547D01*
X008252Y006624D01*
X008406Y006624D01*
X008483Y006547D01*
X008483Y006317D01*
X008022Y006317D01*
X008176Y006470D02*
X008022Y006624D01*
X008406Y005703D02*
X008483Y005626D01*
X008483Y005473D01*
X008406Y005396D01*
X008483Y004782D02*
X008483Y004475D01*
X008252Y004475D02*
X008252Y004629D01*
X008176Y004322D02*
X008099Y004322D01*
X008022Y004245D01*
X008022Y004092D01*
X008099Y004015D01*
X008252Y004092D02*
X008252Y004245D01*
X008176Y004322D01*
X008252Y004092D02*
X008329Y004015D01*
X008406Y004015D01*
X007429Y001038D02*
X007275Y000884D01*
X007275Y000577D01*
X007122Y000654D02*
X006815Y000961D01*
X006815Y000654D01*
X006892Y000577D01*
X007045Y000577D01*
X007122Y000654D01*
X007122Y000961D01*
X007045Y001038D01*
X006892Y001038D01*
X006815Y000961D01*
X007275Y000808D02*
X007582Y000808D01*
X007582Y000884D02*
X007429Y001038D01*
X007582Y000884D02*
X007582Y000577D01*
X007029Y002277D02*
X006875Y002584D01*
X007182Y002584D02*
X007029Y002277D01*
X006722Y002354D02*
X006645Y002431D01*
X006415Y002431D01*
X006415Y002508D02*
X006415Y002277D01*
X006645Y002277D01*
X006722Y002354D01*
X006645Y002584D02*
X006492Y002584D01*
X006415Y002508D01*
X006261Y002584D02*
X006261Y002277D01*
X006261Y002431D02*
X006108Y002584D01*
X006031Y002584D01*
X005878Y002584D02*
X005801Y002584D01*
X005801Y002277D01*
X005878Y002277D02*
X005724Y002277D01*
X005801Y002738D02*
X005801Y002814D01*
X005494Y002584D02*
X005341Y002584D01*
X005264Y002508D01*
X005264Y002277D01*
X005494Y002277D01*
X005571Y002354D01*
X005494Y002431D01*
X005264Y002431D01*
X005110Y002584D02*
X004880Y002584D01*
X004804Y002508D01*
X004804Y002354D01*
X004880Y002277D01*
X005110Y002277D01*
X005110Y002738D01*
X004650Y002738D02*
X004573Y002738D01*
X004573Y002277D01*
X004497Y002277D02*
X004650Y002277D01*
X004343Y002354D02*
X004343Y002508D01*
X004266Y002584D01*
X004113Y002584D01*
X004036Y002508D01*
X004036Y002431D01*
X004343Y002431D01*
X004343Y002354D02*
X004266Y002277D01*
X004113Y002277D01*
X004045Y001038D02*
X003892Y001038D01*
X003815Y000961D01*
X003661Y000961D02*
X003661Y000654D01*
X003585Y000577D01*
X003431Y000577D01*
X003354Y000654D01*
X003354Y000961D02*
X003431Y001038D01*
X003585Y001038D01*
X003661Y000961D01*
X003815Y000654D02*
X003892Y000577D01*
X004045Y000577D01*
X004122Y000654D01*
X004122Y000961D01*
X004045Y001038D01*
X004275Y001038D02*
X004275Y000731D01*
X004429Y000577D01*
X004582Y000731D01*
X004582Y001038D01*
X005054Y000961D02*
X005054Y000654D01*
X005131Y000577D01*
X005361Y000577D01*
X005361Y001038D01*
X005131Y001038D01*
X005054Y000961D01*
X005515Y001038D02*
X005515Y000577D01*
X005822Y001038D01*
X005822Y000577D01*
X005975Y000654D02*
X005975Y000808D01*
X006129Y000808D01*
X006282Y000961D02*
X006205Y001038D01*
X006052Y001038D01*
X005975Y000961D01*
X005975Y000654D02*
X006052Y000577D01*
X006205Y000577D01*
X006282Y000654D01*
X006282Y000961D01*
X003282Y004808D02*
X002975Y004808D01*
X003129Y004961D02*
X003129Y004654D01*
X010206Y011117D02*
X010283Y011194D01*
X010283Y011347D01*
X010206Y011424D01*
D13*
X006611Y027972D02*
X006417Y028069D01*
X006611Y028166D01*
X006611Y028267D02*
X006707Y028364D01*
X006417Y028364D01*
X006417Y028460D02*
X006417Y028267D01*
X006417Y028562D02*
X006417Y028610D01*
X006466Y028610D01*
X006466Y028562D01*
X006417Y028562D01*
X006562Y028709D02*
X006562Y028902D01*
X006417Y028854D02*
X006707Y028854D01*
X006562Y028709D01*
X004744Y029652D02*
X004551Y029652D01*
X004648Y029652D02*
X004648Y029943D01*
X004744Y029846D01*
X004450Y029894D02*
X004401Y029943D01*
X004305Y029943D01*
X004256Y029894D01*
X004256Y029846D01*
X004450Y029652D01*
X004256Y029652D01*
X004155Y029797D02*
X003962Y029797D01*
X003860Y029846D02*
X003764Y029943D01*
X003764Y029652D01*
X003860Y029652D02*
X003667Y029652D01*
X003566Y029701D02*
X003566Y029797D01*
X003421Y029797D01*
X003372Y029749D01*
X003372Y029701D01*
X003421Y029652D01*
X003517Y029652D01*
X003566Y029701D01*
X003566Y029797D02*
X003469Y029894D01*
X003372Y029943D01*
X003271Y029797D02*
X003078Y029797D01*
X002977Y029846D02*
X002880Y029943D01*
X002880Y029652D01*
X002977Y029652D02*
X002783Y029652D01*
X002682Y029652D02*
X002488Y029652D01*
X002585Y029652D02*
X002585Y029943D01*
X002682Y029846D01*
X003091Y010772D02*
X003091Y010724D01*
X002994Y010627D01*
X002897Y010627D02*
X003091Y010627D01*
X003042Y010526D02*
X003091Y010477D01*
X003091Y010381D01*
X003042Y010332D01*
X002946Y010332D01*
X002897Y010381D01*
X002897Y010477D01*
X002994Y010526D02*
X002994Y010332D01*
X003091Y010232D02*
X002994Y010087D01*
X002897Y010232D01*
X002897Y010087D02*
X003187Y010087D01*
X003042Y009985D02*
X003091Y009937D01*
X003091Y009840D01*
X002994Y009840D02*
X002994Y009985D01*
X003042Y009985D02*
X002897Y009985D01*
X002897Y009840D01*
X002946Y009792D01*
X002994Y009840D01*
X002994Y009691D02*
X002994Y009497D01*
X003042Y009497D02*
X003091Y009546D01*
X003091Y009642D01*
X003042Y009691D01*
X002994Y009691D01*
X002897Y009642D02*
X002897Y009546D01*
X002946Y009497D01*
X003042Y009497D01*
X003042Y009396D02*
X002946Y009396D01*
X002897Y009348D01*
X002897Y009203D01*
X002800Y009203D02*
X003091Y009203D01*
X003091Y009348D01*
X003042Y009396D01*
X003091Y009101D02*
X003091Y008956D01*
X003042Y008908D01*
X002994Y008956D01*
X002994Y009053D01*
X002946Y009101D01*
X002897Y009053D01*
X002897Y008908D01*
X002994Y010526D02*
X003042Y010526D01*
D14*
X001452Y030962D02*
X001467Y030977D01*
X001467Y031022D01*
X001497Y031022D02*
X001407Y031022D01*
X001407Y030977D01*
X001422Y030962D01*
X001452Y030962D01*
X001377Y031054D02*
X001377Y031069D01*
X001392Y031084D01*
X001467Y031084D01*
X001497Y031084D02*
X001512Y031084D01*
X001497Y031116D02*
X001407Y031116D01*
X001407Y031161D01*
X001422Y031176D01*
X001452Y031176D01*
X001467Y031161D01*
X001467Y031116D01*
D15*
X004222Y016167D02*
X005222Y014167D01*
X003222Y014167D01*
X004222Y016167D01*
X005222Y014667D01*
X005222Y014167D01*
X005222Y014247D02*
X005182Y014247D01*
X005222Y014346D02*
X005133Y014346D01*
X005084Y014444D02*
X005222Y014444D01*
X005222Y014543D02*
X005034Y014543D01*
X004985Y014641D02*
X005222Y014641D01*
X005174Y014740D02*
X004936Y014740D01*
X004887Y014838D02*
X005108Y014838D01*
X005043Y014937D02*
X004837Y014937D01*
X004788Y015035D02*
X004977Y015035D01*
X004911Y015134D02*
X004739Y015134D01*
X004690Y015232D02*
X004846Y015232D01*
X004780Y015331D02*
X004640Y015331D01*
X004591Y015429D02*
X004714Y015429D01*
X004649Y015528D02*
X004542Y015528D01*
X004583Y015626D02*
X004493Y015626D01*
X004517Y015725D02*
X004443Y015725D01*
X004452Y015823D02*
X004394Y015823D01*
X004386Y015922D02*
X004345Y015922D01*
X004320Y016020D02*
X004296Y016020D01*
X004255Y016119D02*
X004246Y016119D01*
X004198Y016119D02*
X004190Y016119D01*
X004222Y016167D02*
X003222Y014667D01*
X003222Y014167D01*
X003222Y014247D02*
X003262Y014247D01*
X003222Y014346D02*
X003311Y014346D01*
X003361Y014444D02*
X003222Y014444D01*
X003222Y014543D02*
X003410Y014543D01*
X003459Y014641D02*
X003222Y014641D01*
X003271Y014740D02*
X003508Y014740D01*
X003558Y014838D02*
X003336Y014838D01*
X003402Y014937D02*
X003607Y014937D01*
X003656Y015035D02*
X003468Y015035D01*
X003533Y015134D02*
X003705Y015134D01*
X003755Y015232D02*
X003599Y015232D01*
X003665Y015331D02*
X003804Y015331D01*
X003853Y015429D02*
X003730Y015429D01*
X003796Y015528D02*
X003902Y015528D01*
X003862Y015626D02*
X003952Y015626D01*
X003927Y015725D02*
X004001Y015725D01*
X003993Y015823D02*
X004050Y015823D01*
X004059Y015922D02*
X004099Y015922D01*
X004124Y016020D02*
X004149Y016020D01*
X004190Y014837D02*
X004192Y014849D01*
X004197Y014861D01*
X004206Y014870D01*
X004217Y014876D01*
X004229Y014879D01*
X004241Y014878D01*
X004253Y014873D01*
X004263Y014866D01*
X004270Y014855D01*
X004274Y014843D01*
X004274Y014831D01*
X004270Y014819D01*
X004263Y014808D01*
X004253Y014801D01*
X004241Y014796D01*
X004229Y014795D01*
X004217Y014798D01*
X004206Y014804D01*
X004197Y014813D01*
X004192Y014825D01*
X004190Y014837D01*
X004108Y014837D02*
X004110Y014859D01*
X004115Y014879D01*
X004125Y014899D01*
X004137Y014917D01*
X004152Y014932D01*
X004170Y014944D01*
X004190Y014954D01*
X004210Y014959D01*
X004232Y014961D01*
X004254Y014959D01*
X004274Y014954D01*
X004294Y014944D01*
X004312Y014932D01*
X004327Y014917D01*
X004339Y014899D01*
X004349Y014879D01*
X004354Y014859D01*
X004356Y014837D01*
X004354Y014815D01*
X004349Y014795D01*
X004339Y014775D01*
X004327Y014757D01*
X004312Y014742D01*
X004294Y014730D01*
X004274Y014720D01*
X004254Y014715D01*
X004232Y014713D01*
X004210Y014715D01*
X004190Y014720D01*
X004170Y014730D01*
X004152Y014742D01*
X004137Y014757D01*
X004125Y014775D01*
X004115Y014795D01*
X004110Y014815D01*
X004108Y014837D01*
X004022Y014837D02*
X004024Y014866D01*
X004030Y014894D01*
X004039Y014921D01*
X004053Y014946D01*
X004069Y014970D01*
X004089Y014990D01*
X004111Y015009D01*
X004135Y015023D01*
X004162Y015035D01*
X004189Y015043D01*
X004218Y015047D01*
X004246Y015047D01*
X004275Y015043D01*
X004302Y015035D01*
X004329Y015023D01*
X004353Y015009D01*
X004375Y014990D01*
X004395Y014970D01*
X004411Y014946D01*
X004425Y014921D01*
X004434Y014894D01*
X004440Y014866D01*
X004442Y014837D01*
X004440Y014808D01*
X004434Y014780D01*
X004425Y014753D01*
X004411Y014728D01*
X004395Y014704D01*
X004375Y014684D01*
X004353Y014665D01*
X004329Y014651D01*
X004302Y014639D01*
X004275Y014631D01*
X004246Y014627D01*
X004218Y014627D01*
X004189Y014631D01*
X004162Y014639D01*
X004135Y014651D01*
X004111Y014665D01*
X004089Y014684D01*
X004069Y014704D01*
X004053Y014728D01*
X004039Y014753D01*
X004030Y014780D01*
X004024Y014808D01*
X004022Y014837D01*
X003940Y014837D02*
X003942Y014871D01*
X003948Y014904D01*
X003958Y014937D01*
X003971Y014968D01*
X003988Y014997D01*
X004008Y015025D01*
X004032Y015049D01*
X004058Y015071D01*
X004086Y015090D01*
X004116Y015105D01*
X004148Y015117D01*
X004181Y015125D01*
X004215Y015129D01*
X004249Y015129D01*
X004283Y015125D01*
X004316Y015117D01*
X004348Y015105D01*
X004378Y015090D01*
X004406Y015071D01*
X004432Y015049D01*
X004456Y015025D01*
X004476Y014997D01*
X004493Y014968D01*
X004506Y014937D01*
X004516Y014904D01*
X004522Y014871D01*
X004524Y014837D01*
X004522Y014803D01*
X004516Y014770D01*
X004506Y014737D01*
X004493Y014706D01*
X004476Y014677D01*
X004456Y014649D01*
X004432Y014625D01*
X004406Y014603D01*
X004378Y014584D01*
X004348Y014569D01*
X004316Y014557D01*
X004283Y014549D01*
X004249Y014545D01*
X004215Y014545D01*
X004181Y014549D01*
X004148Y014557D01*
X004116Y014569D01*
X004086Y014584D01*
X004058Y014603D01*
X004032Y014625D01*
X004008Y014649D01*
X003988Y014677D01*
X003971Y014706D01*
X003958Y014737D01*
X003948Y014770D01*
X003942Y014803D01*
X003940Y014837D01*
X003852Y014837D02*
X003854Y014875D01*
X003860Y014913D01*
X003869Y014951D01*
X003883Y014987D01*
X003900Y015021D01*
X003920Y015054D01*
X003944Y015085D01*
X003970Y015112D01*
X003999Y015137D01*
X004031Y015159D01*
X004065Y015178D01*
X004100Y015193D01*
X004137Y015205D01*
X004174Y015213D01*
X004213Y015217D01*
X004251Y015217D01*
X004290Y015213D01*
X004327Y015205D01*
X004364Y015193D01*
X004399Y015178D01*
X004433Y015159D01*
X004465Y015137D01*
X004494Y015112D01*
X004520Y015085D01*
X004544Y015054D01*
X004564Y015021D01*
X004581Y014987D01*
X004595Y014951D01*
X004604Y014913D01*
X004610Y014875D01*
X004612Y014837D01*
X004610Y014799D01*
X004604Y014761D01*
X004595Y014723D01*
X004581Y014687D01*
X004564Y014653D01*
X004544Y014620D01*
X004520Y014589D01*
X004494Y014562D01*
X004465Y014537D01*
X004433Y014515D01*
X004399Y014496D01*
X004364Y014481D01*
X004327Y014469D01*
X004290Y014461D01*
X004251Y014457D01*
X004213Y014457D01*
X004174Y014461D01*
X004137Y014469D01*
X004100Y014481D01*
X004065Y014496D01*
X004031Y014515D01*
X003999Y014537D01*
X003970Y014562D01*
X003944Y014589D01*
X003920Y014620D01*
X003900Y014653D01*
X003883Y014687D01*
X003869Y014723D01*
X003860Y014761D01*
X003854Y014799D01*
X003852Y014837D01*
D16*
X008194Y003638D02*
X008194Y003245D01*
X008902Y003245D01*
X008902Y001670D02*
X008194Y001670D01*
X008194Y001276D01*
X011264Y001276D01*
X011264Y003638D01*
X008194Y003638D01*
M02*
