G75*
G70*
%OFA0B0*%
%FSLAX24Y24*%
%IPPOS*%
%LPD*%
%AMOC8*
5,1,8,0,0,1.08239X$1,22.5*
%
%ADD10C,0.0060*%
%ADD11C,0.0020*%
%ADD12C,0.0040*%
%ADD13C,0.0030*%
%ADD14C,0.0100*%
%ADD15C,0.0010*%
%ADD16C,0.0080*%
D10*
X003880Y003554D02*
X004521Y003554D01*
X004521Y003874D01*
X004414Y003981D01*
X004200Y003981D01*
X004094Y003874D01*
X004094Y003554D01*
X004094Y003767D02*
X003880Y003981D01*
X003880Y004198D02*
X004307Y004198D01*
X004521Y004412D01*
X004307Y004625D01*
X003880Y004625D01*
X003880Y004843D02*
X004094Y005056D01*
X003880Y005270D01*
X004521Y005270D01*
X004521Y004843D02*
X003880Y004843D01*
X004200Y004625D02*
X004200Y004198D01*
X008651Y019717D02*
X008651Y020144D01*
X008651Y019931D02*
X008010Y019931D01*
X008010Y020362D02*
X008651Y020362D01*
X008437Y020469D02*
X008437Y020682D01*
X008330Y020789D01*
X008010Y020789D01*
X008117Y021006D02*
X008010Y021113D01*
X008010Y021327D01*
X008010Y021651D02*
X008437Y021651D01*
X008224Y021651D02*
X008437Y021864D01*
X008437Y021971D01*
X008437Y022188D02*
X008437Y022295D01*
X008330Y022402D01*
X008437Y022508D01*
X008330Y022615D01*
X008010Y022615D01*
X008010Y022402D02*
X008330Y022402D01*
X008437Y022188D02*
X008010Y022188D01*
X008117Y022833D02*
X008010Y022939D01*
X008010Y023260D01*
X008330Y023260D01*
X008437Y023153D01*
X008437Y022939D01*
X008224Y022939D02*
X008224Y023260D01*
X008224Y022939D02*
X008117Y022833D01*
X008010Y023477D02*
X008010Y023904D01*
X008117Y024122D02*
X008010Y024229D01*
X008010Y024442D01*
X008117Y024549D01*
X008330Y024549D01*
X008437Y024442D01*
X008437Y024229D01*
X008330Y024122D01*
X008117Y024122D01*
X008117Y024766D02*
X008010Y024873D01*
X008010Y025193D01*
X008117Y025411D02*
X008010Y025518D01*
X008010Y025731D01*
X008117Y025838D01*
X008330Y025838D01*
X008437Y025731D01*
X008437Y025518D01*
X008330Y025411D01*
X008117Y025411D01*
X008437Y025193D02*
X008437Y024873D01*
X008330Y024766D01*
X008117Y024766D01*
X008010Y023477D02*
X008651Y023477D01*
X008330Y021433D02*
X008224Y021433D01*
X008224Y021006D01*
X008330Y021006D02*
X008437Y021113D01*
X008437Y021327D01*
X008330Y021433D01*
X008330Y021006D02*
X008117Y021006D01*
X008437Y020469D02*
X008330Y020362D01*
X008010Y026055D02*
X008010Y026482D01*
X008117Y026700D02*
X008010Y026807D01*
X008010Y027020D01*
X008117Y027127D01*
X008330Y027127D01*
X008437Y027020D01*
X008437Y026807D01*
X008330Y026700D01*
X008117Y026700D01*
X008117Y027344D02*
X008010Y027451D01*
X008010Y027772D01*
X007903Y027772D02*
X008437Y027772D01*
X008437Y027451D01*
X008330Y027344D01*
X008117Y027344D01*
X007796Y027558D02*
X007796Y027665D01*
X007903Y027772D01*
X008117Y027989D02*
X008010Y028096D01*
X008010Y028416D01*
X007903Y028416D02*
X008437Y028416D01*
X008437Y028096D01*
X008330Y027989D01*
X008117Y027989D01*
X007796Y028203D02*
X007796Y028309D01*
X007903Y028416D01*
X008117Y028634D02*
X008010Y028740D01*
X008010Y028954D01*
X008010Y029278D02*
X008437Y029278D01*
X008224Y029278D02*
X008437Y029492D01*
X008437Y029598D01*
X008330Y029061D02*
X008224Y029061D01*
X008224Y028634D01*
X008330Y028634D02*
X008437Y028740D01*
X008437Y028954D01*
X008330Y029061D01*
X008330Y028634D02*
X008117Y028634D01*
X008010Y026055D02*
X008651Y026055D01*
D11*
X004107Y008072D02*
X003923Y008072D01*
X003887Y008035D01*
X003887Y007998D01*
X003960Y007961D02*
X003960Y008072D01*
X003960Y007961D02*
X003997Y007925D01*
X004107Y007925D01*
X004107Y007851D02*
X004107Y007814D01*
X004033Y007741D01*
X003960Y007741D02*
X004107Y007741D01*
X004070Y007666D02*
X004107Y007630D01*
X004107Y007556D01*
X004033Y007556D02*
X004033Y007666D01*
X004070Y007666D02*
X003960Y007666D01*
X003960Y007556D01*
X003997Y007520D01*
X004033Y007556D01*
X003960Y007446D02*
X003997Y007409D01*
X004143Y007409D01*
X004107Y007372D02*
X004107Y007446D01*
X004070Y007298D02*
X004107Y007261D01*
X004107Y007151D01*
X003960Y007151D01*
X004033Y007077D02*
X004033Y006930D01*
X003997Y006930D02*
X004070Y006930D01*
X004107Y006967D01*
X004107Y007040D01*
X004070Y007077D01*
X004033Y007077D01*
X003960Y007040D02*
X003960Y006967D01*
X003997Y006930D01*
X003960Y006856D02*
X004070Y006856D01*
X004107Y006819D01*
X004070Y006783D01*
X003960Y006783D01*
X003960Y006709D02*
X004107Y006709D01*
X004107Y006746D01*
X004070Y006783D01*
X004070Y006635D02*
X004107Y006598D01*
X004107Y006525D01*
X004070Y006488D01*
X003997Y006488D01*
X003960Y006525D01*
X003960Y006598D01*
X003997Y006635D01*
X004070Y006635D01*
X004070Y006414D02*
X003960Y006414D01*
X003960Y006341D02*
X004070Y006341D01*
X004107Y006377D01*
X004070Y006414D01*
X004070Y006341D02*
X004107Y006304D01*
X004107Y006267D01*
X003960Y006267D01*
X003960Y007298D02*
X004070Y007298D01*
D12*
X004200Y008877D02*
X004123Y008954D01*
X004123Y009261D01*
X004200Y009338D01*
X004353Y009338D01*
X004430Y009261D01*
X004430Y009184D01*
X004353Y009108D01*
X004123Y009108D01*
X004200Y008877D02*
X004353Y008877D01*
X004430Y008954D01*
X004470Y010377D02*
X004470Y010838D01*
X004163Y010377D01*
X004163Y010838D01*
X004009Y010838D02*
X003779Y010838D01*
X003702Y010761D01*
X003702Y010454D01*
X003779Y010377D01*
X004009Y010377D01*
X004009Y010838D01*
X004623Y010761D02*
X004700Y010838D01*
X004853Y010838D01*
X004930Y010761D01*
X004930Y010454D01*
X004853Y010377D01*
X004700Y010377D01*
X004623Y010454D01*
X004623Y010608D01*
X004777Y010608D01*
X006723Y009661D02*
X006723Y009584D01*
X006800Y009508D01*
X006723Y009431D01*
X006723Y009354D01*
X006800Y009277D01*
X006953Y009277D01*
X007030Y009354D01*
X006877Y009508D02*
X006800Y009508D01*
X006723Y009661D02*
X006800Y009738D01*
X006953Y009738D01*
X007030Y009661D01*
X007823Y010877D02*
X008130Y010877D01*
X007823Y011184D01*
X007823Y011261D01*
X007900Y011338D01*
X008053Y011338D01*
X008130Y011261D01*
X008300Y008138D02*
X008530Y007908D01*
X008223Y007908D01*
X008300Y008138D02*
X008300Y007677D01*
X009923Y009777D02*
X010230Y009777D01*
X010077Y009777D02*
X010077Y010238D01*
X010230Y010084D01*
X011117Y010686D02*
X011117Y010763D01*
X011193Y010840D01*
X011577Y010840D01*
X011577Y010533D02*
X011347Y010533D01*
X011270Y010609D01*
X011270Y010840D01*
X011270Y010379D02*
X011270Y010149D01*
X011347Y010072D01*
X011423Y010149D01*
X011423Y010379D01*
X011500Y010379D02*
X011270Y010379D01*
X011270Y009919D02*
X011270Y009765D01*
X011270Y009842D02*
X011730Y009842D01*
X011730Y009765D01*
X011577Y009535D02*
X011577Y009305D01*
X011117Y009305D01*
X011270Y009305D02*
X011270Y009535D01*
X011347Y009612D01*
X011500Y009612D01*
X011577Y009535D01*
X011577Y009152D02*
X011577Y008921D01*
X011500Y008845D01*
X011423Y008921D01*
X011423Y009075D01*
X011347Y009152D01*
X011270Y009075D01*
X011270Y008845D01*
X011270Y008691D02*
X011270Y008538D01*
X011270Y008614D02*
X011577Y008614D01*
X011577Y008538D01*
X011577Y008384D02*
X011577Y008154D01*
X011500Y008077D01*
X011347Y008077D01*
X011270Y008154D01*
X011270Y008384D01*
X011730Y008384D01*
X011730Y008614D02*
X011807Y008614D01*
X012570Y008673D02*
X012570Y008826D01*
X012647Y008903D01*
X012800Y008903D01*
X012800Y008750D01*
X012954Y008903D02*
X013030Y008826D01*
X013030Y008673D01*
X012954Y008596D01*
X012647Y008596D01*
X012570Y008673D01*
X012570Y009057D02*
X013030Y009057D01*
X012570Y009363D01*
X013030Y009363D01*
X013030Y009517D02*
X013030Y009747D01*
X012954Y009824D01*
X012647Y009824D01*
X012570Y009747D01*
X012570Y009517D01*
X013030Y009517D01*
X013030Y010196D02*
X012723Y010196D01*
X012570Y010350D01*
X012723Y010503D01*
X013030Y010503D01*
X012954Y010657D02*
X013030Y010733D01*
X013030Y010887D01*
X012954Y010963D01*
X012954Y011117D02*
X012647Y011117D01*
X012570Y011194D01*
X012570Y011347D01*
X012647Y011424D01*
X012954Y011424D02*
X013030Y011347D01*
X013030Y011194D01*
X012954Y011117D01*
X012647Y010963D02*
X012570Y010887D01*
X012570Y010733D01*
X012647Y010657D01*
X012954Y010657D01*
X011577Y010303D02*
X011500Y010379D01*
X011577Y010303D02*
X011577Y010149D01*
X012647Y007524D02*
X012570Y007447D01*
X012570Y007294D01*
X012647Y007217D01*
X012800Y007217D01*
X012800Y007447D01*
X012723Y007524D01*
X012647Y007524D01*
X012954Y007370D02*
X012800Y007217D01*
X012954Y007370D02*
X013030Y007524D01*
X012470Y005924D02*
X012470Y005617D01*
X012470Y005770D02*
X012930Y005770D01*
X012777Y005617D01*
X012777Y005024D02*
X012854Y005024D01*
X012930Y004947D01*
X012930Y004794D01*
X012854Y004717D01*
X012777Y005024D02*
X012470Y004717D01*
X012470Y005024D01*
X012700Y003024D02*
X012700Y002717D01*
X012930Y002947D01*
X012470Y002947D01*
X012547Y002224D02*
X012470Y002147D01*
X012470Y001994D01*
X012547Y001917D01*
X012700Y002070D02*
X012700Y002147D01*
X012623Y002224D01*
X012547Y002224D01*
X012700Y002147D02*
X012777Y002224D01*
X012854Y002224D01*
X012930Y002147D01*
X012930Y001994D01*
X012854Y001917D01*
X011154Y004015D02*
X011230Y004092D01*
X011230Y004245D01*
X011154Y004322D01*
X011230Y004475D02*
X010770Y004475D01*
X010770Y004782D01*
X010770Y004936D02*
X011230Y004936D01*
X010770Y005243D01*
X011230Y005243D01*
X011154Y005396D02*
X011077Y005396D01*
X011000Y005473D01*
X011000Y005626D01*
X010923Y005703D01*
X010847Y005703D01*
X010770Y005626D01*
X010770Y005473D01*
X010847Y005396D01*
X010847Y005857D02*
X010770Y005933D01*
X010770Y006087D01*
X010847Y006163D01*
X011154Y006163D01*
X011230Y006087D01*
X011230Y005933D01*
X011154Y005857D01*
X010847Y005857D01*
X010923Y006317D02*
X010923Y006547D01*
X011000Y006624D01*
X011154Y006624D01*
X011230Y006547D01*
X011230Y006317D01*
X010770Y006317D01*
X010923Y006470D02*
X010770Y006624D01*
X011154Y005703D02*
X011230Y005626D01*
X011230Y005473D01*
X011154Y005396D01*
X011230Y004782D02*
X011230Y004475D01*
X011000Y004475D02*
X011000Y004629D01*
X010923Y004322D02*
X010847Y004322D01*
X010770Y004245D01*
X010770Y004092D01*
X010847Y004015D01*
X011000Y004092D02*
X011000Y004245D01*
X010923Y004322D01*
X011000Y004092D02*
X011077Y004015D01*
X011154Y004015D01*
X009930Y002584D02*
X009777Y002277D01*
X009623Y002584D01*
X009393Y002584D02*
X009239Y002584D01*
X009163Y002508D01*
X009163Y002277D01*
X009393Y002277D01*
X009470Y002354D01*
X009393Y002431D01*
X009163Y002431D01*
X009009Y002431D02*
X008856Y002584D01*
X008779Y002584D01*
X009009Y002584D02*
X009009Y002277D01*
X008626Y002277D02*
X008472Y002277D01*
X008549Y002277D02*
X008549Y002584D01*
X008626Y002584D01*
X008549Y002738D02*
X008549Y002814D01*
X008242Y002584D02*
X008088Y002584D01*
X008012Y002508D01*
X008012Y002277D01*
X008242Y002277D01*
X008319Y002354D01*
X008242Y002431D01*
X008012Y002431D01*
X007858Y002584D02*
X007628Y002584D01*
X007551Y002508D01*
X007551Y002354D01*
X007628Y002277D01*
X007858Y002277D01*
X007858Y002738D01*
X007398Y002738D02*
X007321Y002738D01*
X007321Y002277D01*
X007398Y002277D02*
X007244Y002277D01*
X007091Y002354D02*
X007091Y002508D01*
X007014Y002584D01*
X006861Y002584D01*
X006784Y002508D01*
X006784Y002431D01*
X007091Y002431D01*
X007091Y002354D02*
X007014Y002277D01*
X006861Y002277D01*
X006793Y001038D02*
X006639Y001038D01*
X006563Y000961D01*
X006409Y000961D02*
X006409Y000654D01*
X006332Y000577D01*
X006179Y000577D01*
X006102Y000654D01*
X006102Y000961D02*
X006179Y001038D01*
X006332Y001038D01*
X006409Y000961D01*
X006563Y000654D02*
X006639Y000577D01*
X006793Y000577D01*
X006870Y000654D01*
X006870Y000961D01*
X006793Y001038D01*
X007023Y001038D02*
X007023Y000731D01*
X007177Y000577D01*
X007330Y000731D01*
X007330Y001038D01*
X007802Y000961D02*
X007802Y000654D01*
X007879Y000577D01*
X008109Y000577D01*
X008109Y001038D01*
X007879Y001038D01*
X007802Y000961D01*
X008263Y001038D02*
X008263Y000577D01*
X008570Y001038D01*
X008570Y000577D01*
X008723Y000654D02*
X008723Y000808D01*
X008877Y000808D01*
X009030Y000961D02*
X009030Y000654D01*
X008953Y000577D01*
X008800Y000577D01*
X008723Y000654D01*
X008723Y000961D02*
X008800Y001038D01*
X008953Y001038D01*
X009030Y000961D01*
X009563Y000961D02*
X009563Y000654D01*
X009639Y000577D01*
X009793Y000577D01*
X009870Y000654D01*
X009563Y000961D01*
X009639Y001038D01*
X009793Y001038D01*
X009870Y000961D01*
X009870Y000654D01*
X010023Y000577D02*
X010023Y000884D01*
X010177Y001038D01*
X010330Y000884D01*
X010330Y000577D01*
X010330Y000808D02*
X010023Y000808D01*
X006030Y004808D02*
X005723Y004808D01*
X005877Y004961D02*
X005877Y004654D01*
D13*
X005790Y008908D02*
X005838Y008956D01*
X005838Y009101D01*
X005838Y009203D02*
X005838Y009348D01*
X005790Y009396D01*
X005693Y009396D01*
X005645Y009348D01*
X005645Y009203D01*
X005548Y009203D02*
X005838Y009203D01*
X005693Y009101D02*
X005742Y009053D01*
X005742Y008956D01*
X005790Y008908D01*
X005645Y008908D02*
X005645Y009053D01*
X005693Y009101D01*
X005693Y009497D02*
X005645Y009546D01*
X005645Y009642D01*
X005742Y009691D02*
X005742Y009497D01*
X005790Y009497D02*
X005838Y009546D01*
X005838Y009642D01*
X005790Y009691D01*
X005742Y009691D01*
X005693Y009792D02*
X005742Y009840D01*
X005742Y009985D01*
X005790Y009985D02*
X005645Y009985D01*
X005645Y009840D01*
X005693Y009792D01*
X005838Y009840D02*
X005838Y009937D01*
X005790Y009985D01*
X005742Y010087D02*
X005838Y010232D01*
X005790Y010332D02*
X005838Y010381D01*
X005838Y010477D01*
X005790Y010526D01*
X005742Y010526D01*
X005742Y010332D01*
X005790Y010332D02*
X005693Y010332D01*
X005645Y010381D01*
X005645Y010477D01*
X005645Y010627D02*
X005838Y010627D01*
X005742Y010627D02*
X005838Y010724D01*
X005838Y010772D01*
X005645Y010232D02*
X005742Y010087D01*
X005645Y010087D02*
X005935Y010087D01*
X005790Y009497D02*
X005693Y009497D01*
X009358Y027972D02*
X009165Y028069D01*
X009358Y028166D01*
X009358Y028267D02*
X009455Y028364D01*
X009165Y028364D01*
X009165Y028460D02*
X009165Y028267D01*
X009165Y028562D02*
X009165Y028610D01*
X009213Y028610D01*
X009213Y028562D01*
X009165Y028562D01*
X009310Y028709D02*
X009310Y028902D01*
X009165Y028854D02*
X009455Y028854D01*
X009310Y028709D01*
X007492Y029652D02*
X007299Y029652D01*
X007395Y029652D02*
X007395Y029943D01*
X007492Y029846D01*
X007198Y029894D02*
X007149Y029943D01*
X007052Y029943D01*
X007004Y029894D01*
X007004Y029846D01*
X007198Y029652D01*
X007004Y029652D01*
X006903Y029797D02*
X006709Y029797D01*
X006608Y029846D02*
X006512Y029943D01*
X006512Y029652D01*
X006608Y029652D02*
X006415Y029652D01*
X006314Y029701D02*
X006314Y029797D01*
X006168Y029797D01*
X006120Y029749D01*
X006120Y029701D01*
X006168Y029652D01*
X006265Y029652D01*
X006314Y029701D01*
X006314Y029797D02*
X006217Y029894D01*
X006120Y029943D01*
X006019Y029797D02*
X005825Y029797D01*
X005724Y029846D02*
X005628Y029943D01*
X005628Y029652D01*
X005724Y029652D02*
X005531Y029652D01*
X005430Y029652D02*
X005236Y029652D01*
X005333Y029652D02*
X005333Y029943D01*
X005430Y029846D01*
D14*
X002150Y027457D02*
X002150Y026957D01*
X000150Y026957D01*
X001150Y028957D01*
X002150Y026957D01*
X002150Y027052D02*
X002102Y027052D01*
X002053Y027151D02*
X002150Y027151D01*
X002150Y027249D02*
X002004Y027249D01*
X001955Y027348D02*
X002150Y027348D01*
X002150Y027446D02*
X001905Y027446D01*
X001856Y027545D02*
X002092Y027545D01*
X002150Y027457D02*
X001150Y028957D01*
X000150Y027457D01*
X000150Y026957D01*
X000150Y027052D02*
X000198Y027052D01*
X000150Y027151D02*
X000247Y027151D01*
X000296Y027249D02*
X000150Y027249D01*
X000150Y027348D02*
X000345Y027348D01*
X000395Y027446D02*
X000150Y027446D01*
X000208Y027545D02*
X000444Y027545D01*
X000493Y027643D02*
X000274Y027643D01*
X000340Y027742D02*
X000542Y027742D01*
X000592Y027840D02*
X000405Y027840D01*
X000471Y027939D02*
X000641Y027939D01*
X000690Y028037D02*
X000537Y028037D01*
X000602Y028136D02*
X000739Y028136D01*
X000789Y028234D02*
X000668Y028234D01*
X000734Y028333D02*
X000838Y028333D01*
X000799Y028431D02*
X000887Y028431D01*
X000865Y028530D02*
X000936Y028530D01*
X000931Y028628D02*
X000986Y028628D01*
X000996Y028727D02*
X001035Y028727D01*
X001062Y028825D02*
X001084Y028825D01*
X001128Y028924D02*
X001133Y028924D01*
X001167Y028924D02*
X001172Y028924D01*
X001216Y028825D02*
X001238Y028825D01*
X001265Y028727D02*
X001304Y028727D01*
X001314Y028628D02*
X001369Y028628D01*
X001364Y028530D02*
X001435Y028530D01*
X001413Y028431D02*
X001501Y028431D01*
X001462Y028333D02*
X001566Y028333D01*
X001511Y028234D02*
X001632Y028234D01*
X001698Y028136D02*
X001561Y028136D01*
X001610Y028037D02*
X001763Y028037D01*
X001829Y027939D02*
X001659Y027939D01*
X001708Y027840D02*
X001895Y027840D01*
X001960Y027742D02*
X001758Y027742D01*
X001807Y027643D02*
X002026Y027643D01*
X001118Y027627D02*
X001120Y027639D01*
X001125Y027651D01*
X001134Y027660D01*
X001145Y027666D01*
X001157Y027669D01*
X001169Y027668D01*
X001181Y027663D01*
X001191Y027656D01*
X001198Y027645D01*
X001202Y027633D01*
X001202Y027621D01*
X001198Y027609D01*
X001191Y027598D01*
X001181Y027591D01*
X001169Y027586D01*
X001157Y027585D01*
X001145Y027588D01*
X001134Y027594D01*
X001125Y027603D01*
X001120Y027615D01*
X001118Y027627D01*
X001036Y027627D02*
X001038Y027649D01*
X001043Y027669D01*
X001053Y027689D01*
X001065Y027707D01*
X001080Y027722D01*
X001098Y027734D01*
X001118Y027744D01*
X001138Y027749D01*
X001160Y027751D01*
X001182Y027749D01*
X001202Y027744D01*
X001222Y027734D01*
X001240Y027722D01*
X001255Y027707D01*
X001267Y027689D01*
X001277Y027669D01*
X001282Y027649D01*
X001284Y027627D01*
X001282Y027605D01*
X001277Y027585D01*
X001267Y027565D01*
X001255Y027547D01*
X001240Y027532D01*
X001222Y027520D01*
X001202Y027510D01*
X001182Y027505D01*
X001160Y027503D01*
X001138Y027505D01*
X001118Y027510D01*
X001098Y027520D01*
X001080Y027532D01*
X001065Y027547D01*
X001053Y027565D01*
X001043Y027585D01*
X001038Y027605D01*
X001036Y027627D01*
X000950Y027627D02*
X000952Y027656D01*
X000958Y027684D01*
X000967Y027711D01*
X000981Y027736D01*
X000997Y027760D01*
X001017Y027780D01*
X001039Y027799D01*
X001063Y027813D01*
X001090Y027825D01*
X001117Y027833D01*
X001146Y027837D01*
X001174Y027837D01*
X001203Y027833D01*
X001230Y027825D01*
X001257Y027813D01*
X001281Y027799D01*
X001303Y027780D01*
X001323Y027760D01*
X001339Y027736D01*
X001353Y027711D01*
X001362Y027684D01*
X001368Y027656D01*
X001370Y027627D01*
X001368Y027598D01*
X001362Y027570D01*
X001353Y027543D01*
X001339Y027518D01*
X001323Y027494D01*
X001303Y027474D01*
X001281Y027455D01*
X001257Y027441D01*
X001230Y027429D01*
X001203Y027421D01*
X001174Y027417D01*
X001146Y027417D01*
X001117Y027421D01*
X001090Y027429D01*
X001063Y027441D01*
X001039Y027455D01*
X001017Y027474D01*
X000997Y027494D01*
X000981Y027518D01*
X000967Y027543D01*
X000958Y027570D01*
X000952Y027598D01*
X000950Y027627D01*
X000868Y027627D02*
X000870Y027661D01*
X000876Y027694D01*
X000886Y027727D01*
X000899Y027758D01*
X000916Y027787D01*
X000936Y027815D01*
X000960Y027839D01*
X000986Y027861D01*
X001014Y027880D01*
X001044Y027895D01*
X001076Y027907D01*
X001109Y027915D01*
X001143Y027919D01*
X001177Y027919D01*
X001211Y027915D01*
X001244Y027907D01*
X001276Y027895D01*
X001306Y027880D01*
X001334Y027861D01*
X001360Y027839D01*
X001384Y027815D01*
X001404Y027787D01*
X001421Y027758D01*
X001434Y027727D01*
X001444Y027694D01*
X001450Y027661D01*
X001452Y027627D01*
X001450Y027593D01*
X001444Y027560D01*
X001434Y027527D01*
X001421Y027496D01*
X001404Y027467D01*
X001384Y027439D01*
X001360Y027415D01*
X001334Y027393D01*
X001306Y027374D01*
X001276Y027359D01*
X001244Y027347D01*
X001211Y027339D01*
X001177Y027335D01*
X001143Y027335D01*
X001109Y027339D01*
X001076Y027347D01*
X001044Y027359D01*
X001014Y027374D01*
X000986Y027393D01*
X000960Y027415D01*
X000936Y027439D01*
X000916Y027467D01*
X000899Y027496D01*
X000886Y027527D01*
X000876Y027560D01*
X000870Y027593D01*
X000868Y027627D01*
X000780Y027627D02*
X000782Y027665D01*
X000788Y027703D01*
X000797Y027741D01*
X000811Y027777D01*
X000828Y027811D01*
X000848Y027844D01*
X000872Y027875D01*
X000898Y027902D01*
X000927Y027927D01*
X000959Y027949D01*
X000993Y027968D01*
X001028Y027983D01*
X001065Y027995D01*
X001102Y028003D01*
X001141Y028007D01*
X001179Y028007D01*
X001218Y028003D01*
X001255Y027995D01*
X001292Y027983D01*
X001327Y027968D01*
X001361Y027949D01*
X001393Y027927D01*
X001422Y027902D01*
X001448Y027875D01*
X001472Y027844D01*
X001492Y027811D01*
X001509Y027777D01*
X001523Y027741D01*
X001532Y027703D01*
X001538Y027665D01*
X001540Y027627D01*
X001538Y027589D01*
X001532Y027551D01*
X001523Y027513D01*
X001509Y027477D01*
X001492Y027443D01*
X001472Y027410D01*
X001448Y027379D01*
X001422Y027352D01*
X001393Y027327D01*
X001361Y027305D01*
X001327Y027286D01*
X001292Y027271D01*
X001255Y027259D01*
X001218Y027251D01*
X001179Y027247D01*
X001141Y027247D01*
X001102Y027251D01*
X001065Y027259D01*
X001028Y027271D01*
X000993Y027286D01*
X000959Y027305D01*
X000927Y027327D01*
X000898Y027352D01*
X000872Y027379D01*
X000848Y027410D01*
X000828Y027443D01*
X000811Y027477D01*
X000797Y027513D01*
X000788Y027551D01*
X000782Y027589D01*
X000780Y027627D01*
X006347Y015232D02*
X006503Y015232D01*
X006453Y015134D02*
X006281Y015134D01*
X006215Y015035D02*
X006404Y015035D01*
X006355Y014937D02*
X006150Y014937D01*
X006084Y014838D02*
X006306Y014838D01*
X006256Y014740D02*
X006018Y014740D01*
X005970Y014667D02*
X005970Y014167D01*
X007970Y014167D01*
X006970Y016167D01*
X007970Y014667D01*
X007970Y014167D01*
X007970Y014247D02*
X007930Y014247D01*
X007970Y014346D02*
X007881Y014346D01*
X007831Y014444D02*
X007970Y014444D01*
X007970Y014543D02*
X007782Y014543D01*
X007733Y014641D02*
X007970Y014641D01*
X007922Y014740D02*
X007684Y014740D01*
X007634Y014838D02*
X007856Y014838D01*
X007790Y014937D02*
X007585Y014937D01*
X007536Y015035D02*
X007725Y015035D01*
X007659Y015134D02*
X007487Y015134D01*
X007437Y015232D02*
X007593Y015232D01*
X007528Y015331D02*
X007388Y015331D01*
X007339Y015429D02*
X007462Y015429D01*
X007396Y015528D02*
X007290Y015528D01*
X007331Y015626D02*
X007240Y015626D01*
X007265Y015725D02*
X007191Y015725D01*
X007199Y015823D02*
X007142Y015823D01*
X007134Y015922D02*
X007093Y015922D01*
X007068Y016020D02*
X007043Y016020D01*
X007002Y016119D02*
X006994Y016119D01*
X006946Y016119D02*
X006938Y016119D01*
X006970Y016167D02*
X005970Y014167D01*
X005970Y014247D02*
X006010Y014247D01*
X005970Y014346D02*
X006059Y014346D01*
X006109Y014444D02*
X005970Y014444D01*
X005970Y014543D02*
X006158Y014543D01*
X006207Y014641D02*
X005970Y014641D01*
X005970Y014667D02*
X006970Y016167D01*
X006897Y016020D02*
X006872Y016020D01*
X006847Y015922D02*
X006806Y015922D01*
X006798Y015823D02*
X006741Y015823D01*
X006749Y015725D02*
X006675Y015725D01*
X006700Y015626D02*
X006609Y015626D01*
X006650Y015528D02*
X006544Y015528D01*
X006601Y015429D02*
X006478Y015429D01*
X006412Y015331D02*
X006552Y015331D01*
X006938Y014837D02*
X006940Y014849D01*
X006945Y014861D01*
X006954Y014870D01*
X006965Y014876D01*
X006977Y014879D01*
X006989Y014878D01*
X007001Y014873D01*
X007011Y014866D01*
X007018Y014855D01*
X007022Y014843D01*
X007022Y014831D01*
X007018Y014819D01*
X007011Y014808D01*
X007001Y014801D01*
X006989Y014796D01*
X006977Y014795D01*
X006965Y014798D01*
X006954Y014804D01*
X006945Y014813D01*
X006940Y014825D01*
X006938Y014837D01*
X006856Y014837D02*
X006858Y014859D01*
X006863Y014879D01*
X006873Y014899D01*
X006885Y014917D01*
X006900Y014932D01*
X006918Y014944D01*
X006938Y014954D01*
X006958Y014959D01*
X006980Y014961D01*
X007002Y014959D01*
X007022Y014954D01*
X007042Y014944D01*
X007060Y014932D01*
X007075Y014917D01*
X007087Y014899D01*
X007097Y014879D01*
X007102Y014859D01*
X007104Y014837D01*
X007102Y014815D01*
X007097Y014795D01*
X007087Y014775D01*
X007075Y014757D01*
X007060Y014742D01*
X007042Y014730D01*
X007022Y014720D01*
X007002Y014715D01*
X006980Y014713D01*
X006958Y014715D01*
X006938Y014720D01*
X006918Y014730D01*
X006900Y014742D01*
X006885Y014757D01*
X006873Y014775D01*
X006863Y014795D01*
X006858Y014815D01*
X006856Y014837D01*
X006770Y014837D02*
X006772Y014866D01*
X006778Y014894D01*
X006787Y014921D01*
X006801Y014946D01*
X006817Y014970D01*
X006837Y014990D01*
X006859Y015009D01*
X006883Y015023D01*
X006910Y015035D01*
X006937Y015043D01*
X006966Y015047D01*
X006994Y015047D01*
X007023Y015043D01*
X007050Y015035D01*
X007077Y015023D01*
X007101Y015009D01*
X007123Y014990D01*
X007143Y014970D01*
X007159Y014946D01*
X007173Y014921D01*
X007182Y014894D01*
X007188Y014866D01*
X007190Y014837D01*
X007188Y014808D01*
X007182Y014780D01*
X007173Y014753D01*
X007159Y014728D01*
X007143Y014704D01*
X007123Y014684D01*
X007101Y014665D01*
X007077Y014651D01*
X007050Y014639D01*
X007023Y014631D01*
X006994Y014627D01*
X006966Y014627D01*
X006937Y014631D01*
X006910Y014639D01*
X006883Y014651D01*
X006859Y014665D01*
X006837Y014684D01*
X006817Y014704D01*
X006801Y014728D01*
X006787Y014753D01*
X006778Y014780D01*
X006772Y014808D01*
X006770Y014837D01*
X006688Y014837D02*
X006690Y014871D01*
X006696Y014904D01*
X006706Y014937D01*
X006719Y014968D01*
X006736Y014997D01*
X006756Y015025D01*
X006780Y015049D01*
X006806Y015071D01*
X006834Y015090D01*
X006864Y015105D01*
X006896Y015117D01*
X006929Y015125D01*
X006963Y015129D01*
X006997Y015129D01*
X007031Y015125D01*
X007064Y015117D01*
X007096Y015105D01*
X007126Y015090D01*
X007154Y015071D01*
X007180Y015049D01*
X007204Y015025D01*
X007224Y014997D01*
X007241Y014968D01*
X007254Y014937D01*
X007264Y014904D01*
X007270Y014871D01*
X007272Y014837D01*
X007270Y014803D01*
X007264Y014770D01*
X007254Y014737D01*
X007241Y014706D01*
X007224Y014677D01*
X007204Y014649D01*
X007180Y014625D01*
X007154Y014603D01*
X007126Y014584D01*
X007096Y014569D01*
X007064Y014557D01*
X007031Y014549D01*
X006997Y014545D01*
X006963Y014545D01*
X006929Y014549D01*
X006896Y014557D01*
X006864Y014569D01*
X006834Y014584D01*
X006806Y014603D01*
X006780Y014625D01*
X006756Y014649D01*
X006736Y014677D01*
X006719Y014706D01*
X006706Y014737D01*
X006696Y014770D01*
X006690Y014803D01*
X006688Y014837D01*
X006600Y014837D02*
X006602Y014875D01*
X006608Y014913D01*
X006617Y014951D01*
X006631Y014987D01*
X006648Y015021D01*
X006668Y015054D01*
X006692Y015085D01*
X006718Y015112D01*
X006747Y015137D01*
X006779Y015159D01*
X006813Y015178D01*
X006848Y015193D01*
X006885Y015205D01*
X006922Y015213D01*
X006961Y015217D01*
X006999Y015217D01*
X007038Y015213D01*
X007075Y015205D01*
X007112Y015193D01*
X007147Y015178D01*
X007181Y015159D01*
X007213Y015137D01*
X007242Y015112D01*
X007268Y015085D01*
X007292Y015054D01*
X007312Y015021D01*
X007329Y014987D01*
X007343Y014951D01*
X007352Y014913D01*
X007358Y014875D01*
X007360Y014837D01*
X007358Y014799D01*
X007352Y014761D01*
X007343Y014723D01*
X007329Y014687D01*
X007312Y014653D01*
X007292Y014620D01*
X007268Y014589D01*
X007242Y014562D01*
X007213Y014537D01*
X007181Y014515D01*
X007147Y014496D01*
X007112Y014481D01*
X007075Y014469D01*
X007038Y014461D01*
X006999Y014457D01*
X006961Y014457D01*
X006922Y014461D01*
X006885Y014469D01*
X006848Y014481D01*
X006813Y014496D01*
X006779Y014515D01*
X006747Y014537D01*
X006718Y014562D01*
X006692Y014589D01*
X006668Y014620D01*
X006648Y014653D01*
X006631Y014687D01*
X006617Y014723D01*
X006608Y014761D01*
X006602Y014799D01*
X006600Y014837D01*
D15*
X004200Y030962D02*
X004215Y030977D01*
X004215Y031022D01*
X004245Y031022D02*
X004155Y031022D01*
X004155Y030977D01*
X004170Y030962D01*
X004200Y030962D01*
X004125Y031054D02*
X004125Y031069D01*
X004140Y031084D01*
X004215Y031084D01*
X004245Y031084D02*
X004260Y031084D01*
X004245Y031116D02*
X004155Y031116D01*
X004155Y031161D01*
X004170Y031176D01*
X004200Y031176D01*
X004215Y031161D01*
X004215Y031116D01*
D16*
X010941Y003638D02*
X010941Y003245D01*
X011650Y003245D01*
X010941Y003638D02*
X014012Y003638D01*
X014012Y001276D01*
X010941Y001276D01*
X010941Y001670D01*
X011650Y001670D01*
M02*
