G75*
G70*
%OFA0B0*%
%FSLAX24Y24*%
%IPPOS*%
%LPD*%
%AMOC8*
5,1,8,0,0,1.08239X$1,22.5*
%
%ADD10C,0.0820*%
%ADD11C,0.0650*%
%ADD12R,0.0880X0.0880*%
%ADD13C,0.0880*%
%ADD14C,0.1280*%
%ADD15C,0.0600*%
%ADD16C,0.0730*%
%ADD17C,0.0480*%
D10*
X004440Y012467D03*
X004440Y013467D03*
X004440Y014467D03*
X004440Y015467D03*
X004440Y016467D03*
X004550Y018657D03*
X004550Y019657D03*
X004550Y020657D03*
X004550Y021657D03*
X004550Y022657D03*
X004550Y023657D03*
X004550Y024657D03*
X004550Y025657D03*
X004550Y026657D03*
X004550Y027657D03*
X004550Y028657D03*
X004550Y029657D03*
X005050Y030657D03*
X006050Y030657D03*
X006050Y028657D03*
X007050Y030657D03*
X007550Y028657D03*
X008050Y030657D03*
X009050Y030657D03*
X010050Y030657D03*
X010550Y029657D03*
X010550Y028657D03*
X010550Y027657D03*
X010550Y026657D03*
X010550Y025657D03*
X010550Y024657D03*
X010550Y023657D03*
X010550Y022657D03*
X010550Y021657D03*
X010550Y020657D03*
X010550Y019657D03*
X010550Y018657D03*
X010050Y017157D03*
X009950Y016157D03*
X010050Y015157D03*
X009950Y014157D03*
X010050Y013157D03*
X009950Y012157D03*
X012350Y017657D03*
X012350Y018657D03*
X012350Y019657D03*
X012350Y020657D03*
X012350Y021657D03*
X012350Y022657D03*
X012350Y023657D03*
X012350Y024657D03*
X012350Y025657D03*
X012350Y026657D03*
X012350Y027657D03*
X012350Y028657D03*
X009550Y026157D03*
X009550Y025157D03*
X009550Y022957D03*
X009550Y021757D03*
X009550Y020557D03*
X007550Y024657D03*
X006050Y024657D03*
X005550Y022957D03*
X005550Y021757D03*
X005550Y020557D03*
D11*
X005250Y010251D03*
X005250Y009464D03*
X005250Y007551D03*
X005250Y006764D03*
X005250Y004751D03*
X005250Y003964D03*
X011650Y005064D03*
X011650Y005851D03*
X011650Y002851D03*
X011650Y002064D03*
D12*
X012150Y007887D03*
X006780Y001557D03*
D13*
X008228Y001557D03*
X009676Y001557D03*
X012150Y009335D03*
X012150Y010783D03*
D14*
X004740Y001737D03*
X008250Y004157D03*
X012080Y030387D03*
D15*
X010150Y006717D02*
X010150Y006197D01*
X009150Y006197D02*
X009150Y006717D01*
X008150Y006717D02*
X008150Y006197D01*
D16*
X008050Y018757D03*
X008534Y019357D03*
X007050Y018757D03*
X006566Y019357D03*
D17*
X006610Y020057D03*
X006210Y021177D03*
X007090Y022137D03*
X007490Y023977D03*
X009010Y026697D03*
X009810Y029657D03*
X008610Y029737D03*
X005250Y018697D03*
X006690Y017337D03*
X007170Y016857D03*
X007010Y018137D03*
X008210Y015897D03*
X009010Y015097D03*
X009010Y017257D03*
X009010Y018217D03*
X010050Y017897D03*
X010850Y016137D03*
X011250Y016457D03*
X011650Y017337D03*
X010850Y015097D03*
X010450Y015737D03*
X010450Y013737D03*
X010850Y011417D03*
X009170Y011417D03*
X009010Y012457D03*
X007570Y013657D03*
X006530Y011417D03*
X006530Y009497D03*
X005730Y009097D03*
X005170Y011817D03*
M02*
